<?xml version="1.0" encoding="utf-8"?>
<!-- Generator: Adobe Illustrator 27.5.0, SVG Export Plug-In . SVG Version: 6.00 Build 0)  -->
<svg version="1.1" xmlns="http://www.w3.org/2000/svg" xmlns:xlink="http://www.w3.org/1999/xlink" x="0px" y="0px"
	 viewBox="0 0 3710 3710" style="enable-background:new 0 0 3710 3710;" xml:space="preserve">
<g id="Background">
	<g>
		<g>
			<rect style="fill:#FFFFFF;" width="3710" height="3710"/>
		</g>
	</g>
</g>
<g id="Illustration">
	<g>
		<linearGradient id="SVGID_1_" gradientUnits="userSpaceOnUse" x1="3199.7632" y1="3558.2568" x2="1460.6974" y2="1706.9938">
			<stop  offset="0" style="stop-color:#DAE3FE"/>
			<stop  offset="1" style="stop-color:#E9EFFD"/>
		</linearGradient>
		<path style="fill:url(#SVGID_1_);" d="M2677.254,2815.852c-64.174,66.197-121.595,105.109-165.559,134.486
			c-428.767,286.5-918.894,203.923-1070.43,175.699c-244.484-45.537-450.861-77.661-628.177-237.974
			c-402.914-364.281-383.317-1124.2-75.442-1594.936c36.505-55.816,343.914-511.823,835.103-576.078
			c12.014-1.572,20.978-2.467,28.829-3.298c75.986-8.051,546.854-50.543,930.8,271.361
			c54.96,46.079,143.407,129.193,225.425,255.957C3057.702,1704.571,3058.652,2422.436,2677.254,2815.852z"/>
		<g>
			<g>
				
					<linearGradient id="SVGID_00000021818248396555476000000002539575255649676958_" gradientUnits="userSpaceOnUse" x1="1839.726" y1="1476.6031" x2="1812.0214" y2="3499.0984">
					<stop  offset="0" style="stop-color:#09005D"/>
					<stop  offset="1" style="stop-color:#1A0F91"/>
				</linearGradient>
				<path style="fill:url(#SVGID_00000021818248396555476000000002539575255649676958_);" d="M3094.882,3093.588
					c0,24.783-20.296,45.06-45.103,45.06H610.776c-24.807,0-45.103-20.277-45.103-45.06l-20.295-1401.627
					c0-24.783,29.198-73.166,82.71-69.53l2383.663-61.678c31.125-0.805,61.219,11.175,83.26,33.144
					c22.041,21.969,34.101,52.007,33.366,83.104L3094.882,3093.588z"/>
				
					<linearGradient id="SVGID_00000145736621468724970870000007862742162502418871_" gradientUnits="userSpaceOnUse" x1="607.7715" y1="2353.5957" x2="3084.3538" y2="2353.5957">
					<stop  offset="0" style="stop-color:#4F52FF"/>
					<stop  offset="1" style="stop-color:#4042E2"/>
				</linearGradient>
				<path style="fill:url(#SVGID_00000145736621468724970870000007862742162502418871_);" d="M3050.353,3050.359
					c0,23.469-19.202,42.67-42.67,42.67H669.593c-23.469,0-42.671-19.202-42.671-42.67l-19.151-1272.41
					c2.256-76.571,69.387-104.091,110.081-102.465l2284.591-61.292c21.867-0.587,43.016,7.832,58.497,23.286
					c15.481,15.454,23.937,36.588,23.389,58.456L3050.353,3050.359z"/>
				<g>
					<path style="opacity:0.32;fill:#FFFFFF;" d="M652.191,2443.645c-2.196,0-3.993-1.764-4.025-3.967l-1.516-103.191
						c-0.032-2.223,1.744-4.052,3.968-4.085c2.15-0.12,4.053,1.744,4.085,3.967l1.516,103.191c0.032,2.223-1.744,4.052-3.968,4.085
						C652.231,2443.645,652.21,2443.645,652.191,2443.645z"/>
					<path style="opacity:0.32;fill:#FFFFFF;" d="M648.477,2190.774c-2.196,0-3.993-1.764-4.026-3.968l-5.804-395.217
						c0.121-26.569,8.313-47.795,24.348-63.161c29.137-27.918,74.693-26.516,76.616-26.441l729.514-19.578
						c2.202-0.198,4.073,1.693,4.134,3.917c0.059,2.223-1.695,4.074-3.917,4.133l-729.75,19.578
						c-2.074-0.083-44.328-1.376-71.025,24.208c-14.399,13.797-21.757,33.078-21.867,57.304l5.804,395.141
						c0.033,2.224-1.744,4.052-3.967,4.086C648.517,2190.774,648.496,2190.774,648.477,2190.774z"/>
				</g>
				<path style="opacity:0.12;fill:#FFFFFF;" d="M729.93,2979.771c2.448-105.166,1.536-1036.439-4.498-1116.868
					c-6.034-80.429,119.229-95.515,311.545-104.566s1814.965-44.886,1856.744-48.274c93.912-7.615,113.35,132.754,103.955,437.484
					c-7.059,228.94-18.758,606.08-24.141,779.518c-1.603,51.642-43.812,92.616-95.479,92.759
					c-390.476,1.073-1887.054,5.362-1986.682,8.329C776.724,3031.567,728.959,3021.472,729.93,2979.771z"/>
			</g>
			
				<linearGradient id="SVGID_00000115501472831991767920000011108096757330978706_" gradientUnits="userSpaceOnUse" x1="1949.241" y1="1657.3049" x2="1845.3499" y2="3350.7207">
				<stop  offset="0" style="stop-color:#09005D"/>
				<stop  offset="1" style="stop-color:#1A0F91"/>
			</linearGradient>
			<path style="fill:url(#SVGID_00000115501472831991767920000011108096757330978706_);" d="M3231.168,3255H478.832
				c-33.867,0-61.576-27.709-61.576-61.576l0,0c0-33.867,27.709-61.576,61.576-61.576h2752.335
				c33.867,0,61.576,27.709,61.576,61.576l0,0C3292.744,3227.291,3265.034,3255,3231.168,3255z"/>
		</g>
		<g>
			<g>
				<g>
					
						<linearGradient id="SVGID_00000164487497540804301880000015849486708943123128_" gradientUnits="userSpaceOnUse" x1="1951.9478" y1="1111.6271" x2="1661.0538" y2="3033.5989">
						<stop  offset="0" style="stop-color:#E1473D"/>
						<stop  offset="1" style="stop-color:#E9605A"/>
					</linearGradient>
					<path style="fill:url(#SVGID_00000164487497540804301880000015849486708943123128_);" d="M1819.037,1227.759l-838.044,692.823
						c16.272,7.833,34.707,11.864,54.166,10.85l1587.797-82.738c27.304-1.423,51.887-12.581,70.492-29.991l-623.213-583.814
						C2002.578,1171.509,1890.911,1168.339,1819.037,1227.759z"/>
				</g>
				
					<linearGradient id="SVGID_00000047042722848763653480000017090009927707451581_" gradientUnits="userSpaceOnUse" x1="2361.0354" y1="1983.0371" x2="438.7815" y2="3822.1665">
					<stop  offset="0" style="stop-color:#FF928E"/>
					<stop  offset="1" style="stop-color:#FE7062"/>
				</linearGradient>
				<path style="fill:url(#SVGID_00000047042722848763653480000017090009927707451581_);" d="M2590.992,3103.612H1062.485
					c-61.71,0-111.736-50.026-111.736-111.736v-995.292c0-59.294,46.316-108.263,105.518-111.563l1587.488-88.483
					c66.466-3.705,121.407,51.164,117.789,117.635l-58.981,1083.775C2699.338,3057.211,2650.343,3103.612,2590.992,3103.612z"/>
				<g>
					
						<linearGradient id="SVGID_00000111164383574825075350000013669660119741163182_" gradientUnits="userSpaceOnUse" x1="129.4378" y1="4045.9155" x2="3105.8894" y2="248.7326">
						<stop  offset="0" style="stop-color:#E1473D"/>
						<stop  offset="1" style="stop-color:#E9605A"/>
					</linearGradient>
					<path style="fill:url(#SVGID_00000111164383574825075350000013669660119741163182_);" d="M1862.427,2503.042l835.532-695.85
						c-16.3-7.774-34.75-11.739-54.204-10.654l-1587.488,88.483c-27.299,1.522-51.842,12.769-70.383,30.246l625.321,581.555
						C1679.091,2559.956,1790.769,2562.721,1862.427,2503.042z"/>
				</g>
			</g>
			<g>
				<defs>
					<path id="SVGID_00000074440233943858503310000001309726940211640979_" d="M1034.45,1960.433
						c220.173,204.763,480.37,496.437,674.824,597.006c25.194,13.03,55.453,11.523,79.127-4.1
						c189.701-125.188,599.627-493.231,973.311-808.203V935.96H985.884L1034.45,1960.433z"/>
				</defs>
				<clipPath id="SVGID_00000049204531696199412130000010739726843984926349_">
					<use xlink:href="#SVGID_00000074440233943858503310000001309726940211640979_"  style="overflow:visible;"/>
				</clipPath>
				<g style="clip-path:url(#SVGID_00000049204531696199412130000010739726843984926349_);">
					<path style="fill:#91B3FA;" d="M1165.294,964.034c262.414,19.256,854.783,27.141,1381.378,51.632
						c24.729,1.15,47.744,43.322,48.383,67.615l53.075,2019.278c0.72,27.354-21.181,50.12-49.045,50.962
						c-227.944,6.885-1166.595,31.903-1499.936-11.766c-20.287-2.657-35.264-19.899-34.824-39.981l45.682-2092.641
						C1110.626,980.706,1136.413,961.915,1165.294,964.034z"/>
					<path style="fill:#BDD0FB;" d="M1227.502,1052.894c227.609,10.364,793.533,19.293,1261.545,36.399
						c38.789,1.418,36.234,74.298,36.794,97.099l45.885,1872.431c0.63,25.673-19.27,47.06-44.565,47.873
						c-206.923,6.658-1059.018,30.945-1361.572-9.755c-18.415-2.478-31.995-18.648-31.58-37.497l43.266-1964.174
						C1177.86,1068.589,1201.24,1051.698,1227.502,1052.894z"/>
					<g>
						<path style="fill:#FFFFFF;" d="M2211.999,1652.116c0,42.22-6.469,80.659-19.41,115.35
							c-12.971,34.758-31.331,61.878-55.129,81.357c-23.874,19.55-51.682,29.026-83.465,28.393
							c-21.27-0.424-40.137-6.07-56.6-16.966c-16.498-10.912-28.391-25.103-35.646-42.561l-6.975-0.166
							c-31.468,37.81-71.724,56.287-120.9,55.307c-52.474-1.046-94.086-17.984-124.657-50.908
							c-30.691-33.057-46.084-77.754-46.084-134.007c0-64.149,20.21-115.048,60.486-152.533
							c40.058-37.291,92.063-54.4,155.764-51.493c25.212,1.151,52.896,4.878,83.02,11.168c30.003,6.263,54.625,13.237,73.923,20.915
							l-9.929,217.311c0,41.265,10.933,62.173,32.761,62.726c18.326,0.465,32.901-12.98,43.745-40.314
							c10.824-27.288,16.232-63.193,16.232-107.745c0-47.497-9.539-89.857-28.643-127.158
							c-19.159-37.389-46.188-66.583-81.179-87.59c-35.155-21.097-75.502-32.852-121.125-35.194
							c-59.489-3.054-111.551,6.8-156.031,29.673c-44.748,23.013-79.227,57.817-103.315,104.422
							c-24.163,46.759-36.273,101.5-36.273,164.11c0,84.301,22.449,149.46,67.165,195.271
							c44.451,45.553,108.415,68.815,191.403,69.986c31.178,0.44,65.302-2.589,102.329-9.071
							c36.839-6.443,72.931-16.064,108.272-28.827v85.294c-61.598,26.37-130.551,39.323-207.064,38.677
							c-112.798-0.953-201.901-32.132-266.451-93.908c-65.102-62.296-97.854-148.368-97.854-257.828
							c0-75.939,16.736-144.213,50.118-204.629c33.231-60.152,80.308-106.053,140.978-137.718
							c60.189-31.41,128.886-44.818,205.844-40.436c64.262,3.659,121.205,20.277,170.989,49.727
							c49.447,29.256,87.385,68.948,113.983,119.072C2198.779,1531.776,2211.999,1588.498,2211.999,1652.116z M1767.555,1693.04
							c0,63.72,25.585,96.225,76.505,97.516c26.509,0.672,46.617-8.324,60.391-26.975c13.743-18.61,22.065-49.225,24.985-91.866
							l5.688-98.818c-14.882-3.881-31.702-6.203-50.455-6.958c-36.777-1.48-65.509,9.101-86.107,31.795
							C1777.9,1620.488,1767.555,1652.273,1767.555,1693.04z"/>
					</g>
				</g>
			</g>
		</g>
		<g>
			<g>
				
					<ellipse transform="matrix(0.7071 -0.7071 0.7071 0.7071 70.8707 1536.0798)" style="fill:#91B3FA;" cx="1889.648" cy="682.491" rx="227.492" ry="227.491"/>
				<g>
					<path style="fill:#BDD0FB;" d="M1708.297,593.208c-0.314,0-0.633-0.071-0.933-0.223c-1.023-0.517-1.434-1.765-0.917-2.786
						c35.12-69.578,105.319-112.8,183.201-112.8c12.425,0,24.873,1.121,36.997,3.329c1.128,0.205,1.875,1.285,1.67,2.414
						c-0.206,1.127-1.287,1.885-2.414,1.668c-11.879-2.164-24.076-3.261-36.253-3.261c-76.307,0-145.086,42.349-179.497,110.519
						C1709.786,592.791,1709.056,593.208,1708.297,593.208z"/>
				</g>
				
					<linearGradient id="SVGID_00000147201500821509035460000014067891225734665621_" gradientUnits="userSpaceOnUse" x1="1708.2985" y1="687.2832" x2="2080.5806" y2="687.2832">
					<stop  offset="0" style="stop-color:#4F52FF"/>
					<stop  offset="1" style="stop-color:#4042E2"/>
				</linearGradient>
				
					<circle style="fill:url(#SVGID_00000147201500821509035460000014067891225734665621_);" cx="1894.44" cy="687.283" r="186.141"/>
			</g>
			<g>
				
					<linearGradient id="SVGID_00000181796862410587818010000015175509025682679949_" gradientUnits="userSpaceOnUse" x1="1806.2781" y1="697.5499" x2="1994.4512" y2="697.5499">
					<stop  offset="0" style="stop-color:#DAE3FE"/>
					<stop  offset="1" style="stop-color:#E9EFFD"/>
				</linearGradient>
				<path style="fill:url(#SVGID_00000181796862410587818010000015175509025682679949_);" d="M1809.758,648.825L1809.758,648.825
					c6.5-18.532,22.737-31.836,41.923-32.066c25.335-0.305,46.137,22.253,46.137,50.388c0-28.135,21.044-51.196,47.344-51.512
					c20.424-0.245,38.063,13.269,45.217,32.632l0,0c27.415,69.884-92.561,131.201-92.561,131.201S1785.296,714.523,1809.758,648.825
					z"/>
			</g>
		</g>
		<g>
			<g>
				
					<ellipse transform="matrix(0.7071 -0.7071 0.7071 0.7071 251.6971 2112.8335)" style="fill:#91B3FA;" cx="2676.264" cy="752.591" rx="178.829" ry="178.829"/>
				<g>
					<path style="fill:#BDD0FB;" d="M2533.706,682.407c-0.247,0-0.498-0.056-0.734-0.175c-0.804-0.406-1.127-1.388-0.721-2.19
						c27.608-54.695,82.79-88.671,144.013-88.671c9.767,0,19.552,0.881,29.083,2.617c0.886,0.161,1.474,1.01,1.313,1.897
						c-0.162,0.886-1.011,1.482-1.897,1.311c-9.338-1.701-18.926-2.563-28.498-2.563c-59.984,0-114.051,33.29-141.101,86.878
						C2534.877,682.078,2534.302,682.407,2533.706,682.407z"/>
				</g>
				
					<linearGradient id="SVGID_00000112594935730104486850000011595613660656282020_" gradientUnits="userSpaceOnUse" x1="2533.7075" y1="756.3583" x2="2826.3545" y2="756.3583">
					<stop  offset="0" style="stop-color:#4F52FF"/>
					<stop  offset="1" style="stop-color:#4042E2"/>
				</linearGradient>
				
					<circle style="fill:url(#SVGID_00000112594935730104486850000011595613660656282020_);" cx="2680.031" cy="756.358" r="146.324"/>
			</g>
			<g>
				
					<linearGradient id="SVGID_00000105419683247663671530000007613883771974664339_" gradientUnits="userSpaceOnUse" x1="2639.4353" y1="700.6242" x2="2718.7285" y2="700.6242">
					<stop  offset="0" style="stop-color:#DAE3FE"/>
					<stop  offset="1" style="stop-color:#E9EFFD"/>
				</linearGradient>
				<path style="fill:url(#SVGID_00000105419683247663671530000007613883771974664339_);" d="M2718.729,696.572
					c0,21.896-17.75,45.535-39.647,45.535s-39.646-23.639-39.646-45.535c0-21.896,17.75-37.43,39.646-37.43
					S2718.729,674.676,2718.729,696.572z"/>
				
					<linearGradient id="SVGID_00000053512673617763010980000012436839077747461794_" gradientUnits="userSpaceOnUse" x1="2602.4346" y1="790.5789" x2="2755.3071" y2="790.5789">
					<stop  offset="0" style="stop-color:#DAE3FE"/>
					<stop  offset="1" style="stop-color:#E9EFFD"/>
				</linearGradient>
				<path style="fill:url(#SVGID_00000053512673617763010980000012436839077747461794_);" d="M2629.88,826.409h96.784
					c10.188,0,19.208-6.585,22.313-16.288l5.208-16.278c3.813-11.918-2.386-24.822-14.139-29.119
					c-39.388-14.401-80.116-12.554-121.838,1.329c-11.688,3.889-18.174,16.391-14.949,28.28l4.01,14.783
					C2610.039,819.323,2619.304,826.409,2629.88,826.409z"/>
			</g>
		</g>
		<g>
			<g>
				
					<ellipse transform="matrix(0.7071 -0.7071 0.7071 0.7071 -656.1251 939.0423)" style="fill:#91B3FA;" cx="805.462" cy="1261.534" rx="218.694" ry="218.694"/>
				<g>
					<path style="fill:#BDD0FB;" d="M631.124,1175.703c-0.302,0-0.609-0.068-0.897-0.214c-0.984-0.497-1.378-1.697-0.881-2.679
						c33.762-66.888,101.246-108.438,176.117-108.438c11.945,0,23.911,1.077,35.566,3.201c1.084,0.197,1.803,1.235,1.605,2.32
						c-0.198,1.083-1.237,1.812-2.32,1.603c-11.42-2.081-23.145-3.134-34.851-3.134c-73.356,0-139.475,40.711-172.556,106.245
						C632.556,1175.302,631.854,1175.703,631.124,1175.703z"/>
				</g>
				
					<linearGradient id="SVGID_00000106825708888371775580000001034241965682172321_" gradientUnits="userSpaceOnUse" x1="631.1257" y1="1266.1405" x2="989.011" y2="1266.1405">
					<stop  offset="0" style="stop-color:#4F52FF"/>
					<stop  offset="1" style="stop-color:#4042E2"/>
				</linearGradient>
				
					<circle style="fill:url(#SVGID_00000106825708888371775580000001034241965682172321_);" cx="810.069" cy="1266.141" r="178.943"/>
			</g>
			<g>
				
					<linearGradient id="SVGID_00000100346020913598142130000000388622125388593559_" gradientUnits="userSpaceOnUse" x1="732.8817" y1="1267.6837" x2="773.6752" y2="1267.6837">
					<stop  offset="0" style="stop-color:#DAE3FE"/>
					<stop  offset="1" style="stop-color:#E9EFFD"/>
				</linearGradient>
				<path style="fill:url(#SVGID_00000100346020913598142130000000388622125388593559_);" d="M773.675,1208.47
					c0-4.096-3.32-7.416-7.416-7.416h-25.961c-4.096,0-7.416,3.32-7.416,7.416v118.427c0,4.096,3.32,7.416,7.416,7.416h25.961
					c4.096,0,7.416-3.32,7.416-7.416V1208.47z"/>
				
					<linearGradient id="SVGID_00000046336049748372114540000002486552288662536858_" gradientUnits="userSpaceOnUse" x1="784.5535" y1="1245.9272" x2="893.3361" y2="1245.9272">
					<stop  offset="0" style="stop-color:#DAE3FE"/>
					<stop  offset="1" style="stop-color:#E9EFFD"/>
				</linearGradient>
				<path style="fill:url(#SVGID_00000046336049748372114540000002486552288662536858_);" d="M865.747,1201.054h-26.802v-31.881
					c0-10.284-5.427-17.071-15.712-17.071h-0.659c-10.286,0-18.623,7.562-18.623,17.846l-8.875,31.739
					c-4.096,0-10.523,2.932-10.523,7.028v121.647c0,4.096,9.533,9.389,13.629,9.389h5.768h61.795c15.385,0,27.59-14.445,27.59-29.83
					v-80.766C893.336,1213.772,881.132,1201.054,865.747,1201.054z"/>
			</g>
		</g>
		<g>
			<g>
				
					<ellipse transform="matrix(0.7071 -0.7071 0.7071 0.7071 -158.6794 1002.3656)" style="fill:#91B3FA;" cx="1130.623" cy="692.726" rx="167.649" ry="167.649"/>
				<g>
					<path style="fill:#BDD0FB;" d="M996.977,626.929c-0.232,0-0.467-0.052-0.688-0.164c-0.754-0.381-1.057-1.301-0.676-2.053
						c25.882-51.275,77.614-83.128,135.01-83.128c9.157,0,18.33,0.826,27.265,2.454c0.831,0.151,1.382,0.947,1.231,1.779
						c-0.152,0.83-0.948,1.389-1.779,1.229c-8.754-1.595-17.743-2.403-26.717-2.403c-56.234,0-106.921,31.209-132.28,81.446
						C998.074,626.621,997.536,626.929,996.977,626.929z"/>
				</g>
				
					<linearGradient id="SVGID_00000034797897423857030210000018156883914037445303_" gradientUnits="userSpaceOnUse" x1="996.978" y1="696.257" x2="1271.33" y2="696.257">
					<stop  offset="0" style="stop-color:#4F52FF"/>
					<stop  offset="1" style="stop-color:#4042E2"/>
				</linearGradient>
				
					<circle style="fill:url(#SVGID_00000034797897423857030210000018156883914037445303_);" cx="1134.154" cy="696.257" r="137.176"/>
			</g>
			
				<linearGradient id="SVGID_00000095317364413549748290000014657376974074849926_" gradientUnits="userSpaceOnUse" x1="1088.3096" y1="696.257" x2="1197.3854" y2="696.257">
				<stop  offset="0" style="stop-color:#DAE3FE"/>
				<stop  offset="1" style="stop-color:#E9EFFD"/>
			</linearGradient>
			<path style="fill:url(#SVGID_00000095317364413549748290000014657376974074849926_);" d="M1088.31,640.726v111.538
				c0,7.16,6.063,11.63,11.3,8.342l93.406-58.634c5.826-3.657,5.826-14.015,0-17.318l-93.406-52.957
				C1094.372,628.728,1088.31,633.566,1088.31,640.726z"/>
		</g>
		<g>
			<g>
				
					<ellipse transform="matrix(0.7071 -0.7071 0.7071 0.7071 -61.565 2416.9399)" style="fill:#91B3FA;" cx="2886.722" cy="1282.785" rx="198.192" ry="198.191"/>
				<g>
					<path style="fill:#BDD0FB;" d="M2728.729,1205.001c-0.274,0-0.552-0.062-0.813-0.194c-0.892-0.45-1.249-1.538-0.799-2.427
						c30.597-60.617,91.754-98.272,159.606-98.272c10.825,0,21.669,0.976,32.232,2.901c0.982,0.178,1.634,1.119,1.455,2.103
						c-0.179,0.982-1.121,1.642-2.103,1.453c-10.349-1.885-20.975-2.841-31.584-2.841c-66.479,0-126.399,36.895-156.378,96.284
						C2730.026,1204.638,2729.39,1205.001,2728.729,1205.001z"/>
				</g>
				
					<linearGradient id="SVGID_00000123399545074186850370000013420138211025954219_" gradientUnits="userSpaceOnUse" x1="2728.73" y1="1286.96" x2="3053.0637" y2="1286.96">
					<stop  offset="0" style="stop-color:#4F52FF"/>
					<stop  offset="1" style="stop-color:#4042E2"/>
				</linearGradient>
				
					<circle style="fill:url(#SVGID_00000123399545074186850370000013420138211025954219_);" cx="2890.897" cy="1286.96" r="162.167"/>
			</g>
			
				<linearGradient id="SVGID_00000157306082164641989720000000044646237194319001_" gradientUnits="userSpaceOnUse" x1="2825.217" y1="1285.3411" x2="2968.6714" y2="1285.3411">
				<stop  offset="0" style="stop-color:#DAE3FE"/>
				<stop  offset="1" style="stop-color:#E9EFFD"/>
			</linearGradient>
			<path style="fill:url(#SVGID_00000157306082164641989720000000044646237194319001_);" d="M2825.217,1250.079
				c0,25.68,29.898,86.755,51.015,126.701c8.796,16.638,31.971,17.758,40.804,1.929c21.29-38.155,51.636-97.102,51.636-123.025
				c0-40.003-32.349-73.542-72.065-74.905C2857.097,1179.422,2825.217,1210.452,2825.217,1250.079z M2858.193,1251.368
				c0-21.323,17.175-37.981,38.414-37.205c21.298,0.778,38.608,18.784,38.608,40.215c0,21.431-17.31,38.084-38.608,37.198
				C2875.368,1290.691,2858.193,1272.69,2858.193,1251.368z"/>
		</g>
		<g>
			<defs>
				
					<rect id="SVGID_00000155131999428959176580000014748762582411607940_" x="1176.428" y="2138.505" width="1321.007" height="963.149"/>
			</defs>
			<clipPath id="SVGID_00000177449075895309868710000012750735984913686433_">
				<use xlink:href="#SVGID_00000155131999428959176580000014748762582411607940_"  style="overflow:visible;"/>
			</clipPath>
			<g style="clip-path:url(#SVGID_00000177449075895309868710000012750735984913686433_);">
				<g>
					
						<linearGradient id="SVGID_00000164471496110076548390000017418588384426396304_" gradientUnits="userSpaceOnUse" x1="2083.6985" y1="1853.819" x2="1301.0216" y2="4077.1807">
						<stop  offset="0" style="stop-color:#E1473D"/>
						<stop  offset="1" style="stop-color:#E9605A"/>
					</linearGradient>
					<path style="fill:url(#SVGID_00000164471496110076548390000017418588384426396304_);" d="M1290.095,2818.903
						c-6.87-3.002-10.503-10.773-8.181-18.074c5.072-15.969,10.917-31.955,17.365-47.513c3.138-7.57,11.815-11.164,19.383-8.027
						c0.09,0.04,0.178,0.078,0.265,0.116c7.385,3.228,10.859,11.79,7.758,19.268c-6.128,14.781-11.676,29.966-16.497,45.135
						c-2.479,7.807-10.821,12.129-18.63,9.646C1291.056,2819.297,1290.568,2819.11,1290.095,2818.903z M1342.718,2700.877
						c-0.531-0.232-1.056-0.499-1.57-0.799c-7.069-4.139-9.446-13.228-5.307-20.297c8.505-14.52,17.714-28.82,27.372-42.5
						c4.725-6.694,13.941-8.287,20.675-3.567c6.692,4.727,8.284,13.984,3.562,20.672c-9.18,13.005-17.927,26.59-26.007,40.391
						C1357.604,2701.332,1349.511,2703.846,1342.718,2700.877z M1420.019,2597.374c-1.513-0.661-2.941-1.589-4.215-2.784
						c-5.967-5.611-6.263-14.998-0.654-20.969c11.495-12.239,23.67-24.131,36.183-35.343c6.106-5.464,15.479-4.94,20.947,1.148
						c5.465,6.101,4.951,15.481-1.149,20.947c-11.883,10.647-23.44,21.936-34.36,33.56
						C1432.36,2598.631,1425.605,2599.815,1420.019,2597.374z M1518.545,2513.737c-2.501-1.093-4.729-2.889-6.362-5.323
						c-4.565-6.801-2.75-16.017,4.05-20.583c13.956-9.362,28.481-18.234,43.175-26.369c7.165-3.957,16.188-1.367,20.162,5.795
						c3.967,7.165,1.372,16.193-5.795,20.162c-13.955,7.725-27.754,16.149-41.011,25.051
						C1528.394,2515.398,1523.034,2515.699,1518.545,2513.737z M1633.244,2454.172c-3.507-1.533-6.422-4.413-7.903-8.266
						c-2.943-7.647,0.871-16.23,8.516-19.169c15.644-6.019,31.769-11.454,47.92-16.144c7.865-2.292,16.099,2.229,18.384,10.102
						c2.285,7.866-2.238,16.096-10.106,18.385c-15.353,4.457-30.678,9.623-45.546,15.343
						C1640.717,2455.882,1636.695,2455.68,1633.244,2454.172z M1758.255,2421.466c-4.542-1.985-7.988-6.197-8.753-11.464
						c-1.177-8.109,4.439-15.633,12.545-16.814c16.614-2.414,33.543-4.147,50.307-5.141c8.182-0.484,15.201,5.751,15.686,13.931
						c0.487,8.174-5.75,15.198-13.927,15.685c-15.932,0.948-32.011,2.59-47.799,4.885
						C1763.472,2422.962,1760.705,2422.537,1758.255,2421.466z M2270.46,2606.766c-1.882-0.823-3.619-2.049-5.081-3.675
						c-10.654-11.852-21.97-23.398-33.634-34.313c-5.98-5.598-6.292-14.985-0.695-20.962c5.596-5.984,14.983-6.295,20.966-0.696
						c12.283,11.496,24.204,23.655,35.425,36.134c5.478,6.093,4.977,15.473-1.115,20.948
						C2281.861,2608.22,2275.626,2609.024,2270.46,2606.766z M1887.322,2417.281c-5.638-2.464-9.363-8.303-8.844-14.779
						c0.655-8.168,7.805-14.256,15.97-13.603c16.738,1.339,33.62,3.425,50.18,6.197c8.071,1.39,13.537,8.995,12.183,17.079
						c-1.352,8.078-9,13.532-17.082,12.182c-15.725-2.635-31.757-4.614-47.65-5.888
						C1890.392,2418.33,1888.79,2417.922,1887.322,2417.281z M2173.786,2521.027c-0.897-0.392-1.771-0.875-2.603-1.46
						c-13.045-9.172-26.662-17.899-40.464-25.948c-7.076-4.13-9.469-13.212-5.343-20.287c4.129-7.074,13.221-9.505,20.287-5.343
						c14.522,8.471,28.85,17.654,42.579,27.302c6.702,4.712,8.317,13.967,3.606,20.666
						C2187.725,2521.826,2180.115,2523.792,2173.786,2521.027z M2014.089,2442.03c-6.859-2.998-10.493-10.751-8.19-18.047
						c2.466-7.813,10.797-12.146,18.612-9.686c15.995,5.049,31.988,10.856,47.53,17.268c0.097,0.036,0.196,0.079,0.292,0.121
						c7.375,3.223,10.849,11.767,7.769,19.242c-3.124,7.576-11.793,11.185-19.368,8.059c-14.765-6.086-29.956-11.599-45.154-16.395
						C2015.069,2442.427,2014.569,2442.24,2014.089,2442.03z"/>
					
						<linearGradient id="SVGID_00000108288449526297693950000013825193323047490483_" gradientUnits="userSpaceOnUse" x1="2559.5129" y1="2021.3165" x2="1776.8353" y2="4244.6802">
						<stop  offset="0" style="stop-color:#E1473D"/>
						<stop  offset="1" style="stop-color:#E9605A"/>
					</linearGradient>
					<path style="fill:url(#SVGID_00000108288449526297693950000013825193323047490483_);" d="M2332.803,2690.207
						c-2.676-1.169-5.038-3.137-6.684-5.817c-4.003-6.517-8.212-13.055-12.502-19.445c-4.57-6.797-2.763-16.017,4.035-20.583
						c6.798-4.573,16.024-2.773,20.585,4.039c4.517,6.716,8.94,13.594,13.156,20.451c4.289,6.977,2.11,16.117-4.867,20.403
						C2342.224,2691.902,2337.104,2692.086,2332.803,2690.207z"/>
				</g>
				<g>
					
						<linearGradient id="SVGID_00000115479754575425292260000008877360962120639886_" gradientUnits="userSpaceOnUse" x1="2355.6145" y1="1949.5417" x2="1572.9387" y2="4172.8994">
						<stop  offset="0" style="stop-color:#E1473D"/>
						<stop  offset="1" style="stop-color:#E9605A"/>
					</linearGradient>
					<path style="fill:url(#SVGID_00000115479754575425292260000008877360962120639886_);" d="M1610.143,3522.714
						c-6.254-2.733-12.486-5.583-18.693-8.548c-7.391-3.534-10.521-12.388-6.99-19.78s12.435-10.533,19.779-6.994
						c14.326,6.843,28.896,13.09,43.476,18.627c7.66,2.924,11.509,11.473,8.602,19.131c-2.91,7.663-11.478,11.513-19.136,8.604
						C1628.163,3530.329,1619.066,3526.613,1610.143,3522.714z M1523.259,3475.657c-0.759-0.332-1.503-0.734-2.221-1.205
						c-13.832-9.086-27.433-18.862-40.422-29.053c-6.444-5.055-7.57-14.38-2.517-20.822c5.059-6.446,14.406-7.584,20.828-2.514
						c12.337,9.679,25.259,18.961,38.401,27.601c6.846,4.497,8.749,13.694,4.253,20.537
						C1537.551,3476.333,1529.76,3478.499,1523.259,3475.657z M1711.902,3556.339c-6.408-2.8-10.125-9.844-8.502-16.906
						c1.837-7.987,9.797-12.969,17.782-11.136c15.272,3.513,30.902,6.417,46.465,8.627c8.109,1.166,13.751,8.665,12.598,16.774
						c-1.156,8.113-8.666,13.753-16.777,12.599c-16.387-2.33-32.85-5.39-48.934-9.086
						C1713.615,3556.999,1712.735,3556.704,1711.902,3556.339z M1425.293,3394.532c-1.726-0.754-3.331-1.855-4.721-3.29
						c-11.487-11.893-22.604-24.422-33.041-37.235c-5.172-6.351-4.218-15.691,2.134-20.864c6.354-5.178,15.692-4.227,20.868,2.132
						c9.911,12.165,20.466,24.063,31.376,35.357c5.694,5.89,5.528,15.284-0.364,20.973
						C1437.092,3395.907,1430.637,3396.867,1425.293,3394.532z M1838.151,3570.916c-5.256-2.297-8.922-7.554-8.897-13.658
						c0.033-8.193,6.702-14.808,14.895-14.775c15.662,0.066,31.549-0.541,47.221-1.798c8.165-0.656,15.319,5.43,15.972,13.601
						c0.653,8.164-5.433,15.312-13.598,15.967c-16.499,1.327-33.225,1.965-49.718,1.897
						C1841.94,3572.142,1839.95,3571.702,1838.151,3570.916z M1964.545,3557.436c-4.202-1.836-7.497-5.59-8.559-10.411
						c-1.757-8.002,3.303-15.914,11.305-17.672c15.345-3.374,30.727-7.433,45.715-12.062c7.824-2.43,16.128,1.952,18.552,9.79
						c2.418,7.829-1.966,16.131-9.794,18.554c-15.775,4.873-31.961,9.144-48.108,12.692
						C1970.48,3559.025,1967.316,3558.648,1964.545,3557.436z M2084.993,3516.723c-3.196-1.397-5.913-3.918-7.501-7.331
						c-3.458-7.424-0.24-16.249,7.186-19.706c14.257-6.637,28.386-13.944,42-21.729c7.109-4.063,16.168-1.604,20.238,5.518
						c4.063,7.113,1.596,16.171-5.518,20.239c-14.327,8.187-29.199,15.884-44.199,22.867
						C2093.183,3518.45,2088.757,3518.368,2084.993,3516.723z M2193.687,3450.715c-2.214-0.968-4.221-2.49-5.801-4.54
						c-4.999-6.49-3.788-15.801,2.703-20.799c12.454-9.588,24.635-19.814,36.21-30.399c6.046-5.528,15.437-5.104,20.956,0.931
						c5.531,6.046,5.11,15.43-0.935,20.958c-12.192,11.15-25.021,21.921-38.13,32.014
						C2204.246,3452.3,2198.484,3452.811,2193.687,3450.715z M2285.275,3362.421c-1.245-0.544-2.435-1.273-3.533-2.183
						c-6.305-5.228-7.178-14.582-1.948-20.883c10.006-12.068,19.63-24.72,28.605-37.617c4.681-6.725,13.943-8.363,20.647-3.7
						c6.725,4.678,8.381,13.926,3.701,20.651c-9.449,13.576-19.58,26.898-30.117,39.6
						C2298.312,3363.496,2291.178,3365.001,2285.275,3362.421z M2355.18,3256.235c-0.279-0.122-0.555-0.256-0.83-0.394
						c-7.292-3.731-10.18-12.669-6.447-19.96c5.267-10.295,10.278-20.871,14.9-31.448c1.673-3.828,3.298-7.67,4.88-11.513
						c3.119-7.578,11.788-11.194,19.362-8.074c7.732,3.006,11.19,11.783,8.076,19.357c-1.665,4.047-3.373,8.08-5.134,12.11
						c-4.861,11.123-10.136,22.255-15.677,33.081C2370.721,3256.412,2362.308,3259.35,2355.18,3256.235z"/>
					
						<linearGradient id="SVGID_00000083788910663455557540000011742162720651522972_" gradientUnits="userSpaceOnUse" x1="1872.0637" y1="1779.3179" x2="1089.3872" y2="4002.678">
						<stop  offset="0" style="stop-color:#E1473D"/>
						<stop  offset="1" style="stop-color:#E9605A"/>
					</linearGradient>
					<path style="fill:url(#SVGID_00000083788910663455557540000011742162720651522972_);" d="M1347.42,3293.517
						c-2.703-1.181-5.078-3.174-6.726-5.88c-4.171-6.862-8.276-13.943-12.201-21.045c-3.964-7.171-1.364-16.196,5.805-20.157
						c7.172-3.96,16.193-1.371,20.158,5.805c3.729,6.746,7.629,13.471,11.588,19.987c4.256,6.995,2.032,16.121-4.968,20.377
						C1356.784,3295.213,1351.694,3295.385,1347.42,3293.517z"/>
				</g>
				<g>
					
						<linearGradient id="SVGID_00000118386707843899056660000008308307446561280662_" gradientUnits="userSpaceOnUse" x1="1407.1671" y1="2975.563" x2="2290.9097" y2="2975.563">
						<stop  offset="0" style="stop-color:#E1473D"/>
						<stop  offset="1" style="stop-color:#E9605A"/>
					</linearGradient>
					<path style="fill:url(#SVGID_00000118386707843899056660000008308307446561280662_);" d="M1434.658,3143.88
						c0.796,2.848,3.311,4.879,6.264,5.055l84.229,5.027c18.979,34.533,43.6,66.29,73.463,93.725l-15.17,82.948
						c-0.533,2.91,0.84,5.836,3.417,7.288l88.185,49.671c2.578,1.451,5.792,1.107,8.003-0.854l63.073-55.968
						c38.942,11.317,78.86,15.915,118.23,14.245l47.957,69.426c1.681,2.433,4.72,3.532,7.569,2.737l97.478-27.234
						c2.85-0.797,4.88-3.313,5.055-6.264l5.027-84.228c34.533-18.978,66.29-43.602,93.724-73.464l82.95,15.171
						c2.909,0.532,5.835-0.84,7.287-3.417l49.671-88.186c1.452-2.577,1.108-5.791-0.856-8.003l-55.968-63.073
						c11.318-38.941,15.917-78.859,14.246-118.229l69.427-47.958c2.431-1.68,3.531-4.72,2.736-7.568l-27.235-97.478
						c-0.795-2.85-3.312-4.879-6.263-5.055l-84.229-5.026c-18.977-34.534-43.6-66.29-73.463-93.725l15.171-82.95
						c0.532-2.909-0.84-5.835-3.417-7.288l-88.187-49.67c-2.577-1.452-5.79-1.108-8.003,0.855l-63.073,55.968
						c-38.941-11.32-78.86-15.916-118.23-14.246l-47.956-69.425c-1.68-2.435-4.722-3.533-7.57-2.738l-97.478,27.235
						c-2.848,0.796-4.878,3.311-5.055,6.263l-5.027,84.228c-34.534,18.978-66.29,43.602-93.724,73.464l-82.949-15.171
						c-2.908-0.533-5.836,0.84-7.286,3.418l-49.67,88.184c-1.451,2.577-1.109,5.791,0.854,8.004l55.968,63.073
						c-11.317,38.94-15.915,78.859-14.246,118.229l-69.425,47.957c-2.434,1.681-3.532,4.719-2.738,7.57L1434.658,3143.88z"/>
					<path style="opacity:0.32;fill:#FFFFFF;" d="M1808.234,3068.765c-45.443-19.859-70.762-70.666-57.363-119.912
						c14.731-54.133,70.749-86.183,124.879-71.456c26.227,7.13,48.098,24.054,61.59,47.637
						c13.497,23.585,17.002,51.016,9.864,77.238c-14.731,54.133-70.749,86.182-124.878,71.456
						C1817.447,3072.4,1812.739,3070.734,1808.234,3068.765z M1880.431,2904.142c-3.51-1.534-7.149-2.82-10.912-3.845
						c-41.5-11.294-84.453,13.287-95.746,54.784c-11.293,41.503,13.269,84.467,54.785,95.749
						c41.5,11.294,84.453-13.287,95.746-54.784c5.471-20.108,2.785-41.137-7.563-59.222
						C1908.33,2922.127,1895.671,2910.802,1880.431,2904.142z"/>
					<path style="opacity:0.32;fill:#FFFFFF;" d="M1751.299,3204.243c-7.804-3.411-15.483-7.234-23.006-11.47l0,0
						c-2.368-1.332-4.715-2.705-7.04-4.114c-11.459-6.949-22.348-14.799-32.498-23.428c-0.138-0.117-0.277-0.235-0.415-0.352
						c-0.391-0.335-0.782-0.671-1.17-1.011c-0.76-0.655-1.513-1.319-2.264-1.982c-1.974-1.748-2.507-4.516-1.507-6.811
						c0.244-0.557,0.579-1.087,1.004-1.566c2.172-2.453,5.921-2.667,8.373-0.502c12.618,11.186,26.526,21.084,41.339,29.422
						c73.564,41.451,159.976,39.453,229.457,2.36c38.649-20.626,72.057-52.117,95.102-93.037
						c4.043-7.174,7.694-14.501,10.944-21.946c21.888-50.101,25.847-105.743,10.935-159.109
						c-17.125-61.302-57.1-112.266-112.555-143.5c-114.537-64.497-260.082-23.799-324.559,90.677
						c-3.976,7.058-7.58,14.292-10.8,21.667c-13.96,31.96-20.773,66.619-19.826,101.514c0.024,0.902-0.153,1.76-0.494,2.535
						c-0.891,2.039-2.902,3.493-5.276,3.556c-3.278,0.079-6.008-2.486-6.092-5.773c-0.993-36.635,6.156-73.026,20.812-106.578
						c3.38-7.742,7.163-15.333,11.333-22.743c67.695-120.19,220.577-162.867,340.724-95.198
						c58.22,32.791,100.181,86.293,118.16,150.648c15.656,56.025,11.499,114.438-11.477,167.035
						c-3.416,7.815-7.248,15.506-11.487,23.037c-32.795,58.222-86.295,100.187-150.648,118.167
						C1862.331,3231.399,1803.904,3227.232,1751.299,3204.243z"/>
				</g>
			</g>
		</g>
	</g>
</g>
</svg>
