<?xml version="1.0" encoding="utf-8"?>
<!-- Generator: Adobe Illustrator 27.5.0, SVG Export Plug-In . SVG Version: 6.00 Build 0)  -->
<svg version="1.1" xmlns="http://www.w3.org/2000/svg" xmlns:xlink="http://www.w3.org/1999/xlink" x="0px" y="0px"
	 viewBox="0 0 2200 2200" style="enable-background:new 0 0 2200 2200;" xml:space="preserve">
<g id="background">
	<rect style="fill:#FFFFFF;" width="2200" height="2200"/>
</g>
<g id="Objects">
	<g>
		<path style="fill:#1D3E66;" d="M1373.68,959.795h-26.207v-84.238c0-64.624-25.166-125.381-70.862-171.077
			c-45.697-45.696-106.453-70.862-171.077-70.862s-125.381,25.166-171.077,70.862c-45.696,45.696-70.862,106.453-70.862,171.077
			v84.238h-26.207c-30.553,0-55.328,24.774-55.328,55.328v431.838c0,30.553,24.774,55.328,55.328,55.328h536.294
			c30.553,0,55.328-24.775,55.328-55.328v-431.838C1429.007,984.569,1404.233,959.795,1373.68,959.795z M923.702,875.557
			c0-48.569,18.914-94.23,53.258-128.573c34.343-34.343,80.005-53.257,128.573-53.257c48.568,0,94.231,18.914,128.573,53.257
			c34.344,34.343,53.258,80.005,53.258,128.573v84.238H923.702V875.557z M1141.587,1276.379v38.985
			c0,19.906-16.148,36.046-36.054,36.046c-19.906,0-36.054-16.14-36.054-36.046v-38.985c-29.921-13.689-50.711-43.896-50.711-78.94
			c0-47.923,38.851-86.765,86.765-86.765s86.765,38.842,86.765,86.765C1192.298,1232.482,1171.508,1262.69,1141.587,1276.379z"/>
		<path style="fill:#F4C52F;" d="M1855.04,904.104c-15.878-61.816-39.38-121.657-69.854-177.862
			c-59.858-110.398-146.526-206.055-250.634-276.631c-19.031-12.899-44.916-7.932-57.816,11.099
			c-12.9,19.03-7.931,44.915,11.099,57.816c93.118,63.125,170.632,148.675,224.16,247.4c27.226,50.215,48.222,103.674,62.405,158.89
			c14.615,56.902,22.026,115.842,22.026,175.183c0,94.782-18.554,186.707-55.146,273.221
			c-35.353,83.584-85.972,158.658-150.453,223.139c-64.48,64.48-139.555,115.1-223.139,150.453
			c-86.514,36.593-178.439,55.146-273.221,55.146v-44.627c0-23.229-26.296-36.704-45.151-23.137l-119.875,86.255
			c-15.808,11.374-15.808,34.899,0,46.273l119.875,86.255c18.855,13.567,45.151,0.093,45.151-23.137v-44.627
			c105.985,0,208.822-20.766,305.654-61.723c93.508-39.551,177.479-96.162,249.577-168.262
			c72.1-72.1,128.711-156.069,168.262-249.577c40.957-96.832,61.723-199.669,61.723-305.654
			C1879.682,1033.677,1871.391,967.768,1855.04,904.104z"/>
		<path style="fill:#F4C52F;" d="M609.173,603.641c64.48-64.48,139.555-115.1,223.139-150.453
			c86.514-36.593,178.439-55.146,273.221-55.146v44.627c0,23.229,26.296,36.704,45.151,23.137l119.875-86.255
			c15.808-11.374,15.808-34.899,0-46.273l-119.875-86.255c-18.855-13.567-45.151-0.093-45.151,23.137v44.627
			c-105.985,0-208.822,20.767-305.654,61.723c-93.508,39.551-177.479,96.162-249.577,168.261
			c-72.1,72.1-128.711,156.069-168.262,249.577c-40.956,96.832-61.723,199.669-61.723,305.654
			c0,66.323,8.291,132.232,24.643,195.895c15.877,61.817,39.38,121.657,69.854,177.863
			c59.858,110.397,146.525,206.054,250.634,276.63c7.157,4.851,15.281,7.175,23.321,7.175c13.34,0,26.446-6.4,34.495-18.273
			c12.9-19.031,7.931-44.916-11.099-57.816c-93.118-63.126-170.632-148.675-224.16-247.4
			c-27.226-50.215-48.222-103.674-62.405-158.89c-14.615-56.902-22.026-115.842-22.026-175.184
			c0-94.782,18.554-186.707,55.146-273.221C494.073,743.195,544.693,668.12,609.173,603.641z"/>
	</g>
</g>
</svg>
