<?xml version="1.0" encoding="UTF-8" standalone="no"?>
<svg
   width="308"
   height="51"
   viewBox="0 0 308 51"
   fill="none"
   version="1.1"
   id="svg38"
   sodipodi:docname="blue-waves.svg"
   inkscape:version="1.2.2 (732a01da63, 2022-12-09)"
   xmlns:inkscape="http://www.inkscape.org/namespaces/inkscape"
   xmlns:sodipodi="http://sodipodi.sourceforge.net/DTD/sodipodi-0.dtd"
   xmlns="http://www.w3.org/2000/svg"
   xmlns:svg="http://www.w3.org/2000/svg">
  <sodipodi:namedview
     id="namedview40"
     pagecolor="#ffffff"
     bordercolor="#000000"
     borderopacity="0.25"
     inkscape:showpageshadow="2"
     inkscape:pageopacity="0.0"
     inkscape:pagecheckerboard="0"
     inkscape:deskcolor="#d1d1d1"
     showgrid="false"
     inkscape:zoom="6.5442039"
     inkscape:cx="209.72757"
     inkscape:cy="47.98139"
     inkscape:window-width="2240"
     inkscape:window-height="1294"
     inkscape:window-x="-11"
     inkscape:window-y="-11"
     inkscape:window-maximized="1"
     inkscape:current-layer="g4" />
  <g
     filter="url(#filter0_dd_1305_5001)"
     id="g4">
    <path
       d="m -5.6538581,39.369246 15.1762805,8.523363 c 3.0066766,1.688565 6.5873356,1.688565 9.5939076,0 l 12.921299,-7.256912 c 1.481462,-0.831999 3.126918,-1.266451 4.797006,-1.266451 h 14.889239 c 1.669982,0 3.315439,-0.434452 4.797005,-1.266451 l 17.7182,-9.95101 15.176177,-8.523363 c 3.006676,-1.688564 6.587336,-1.688564 9.594533,0 l 12.921091,7.256912 c 1.48094,0.831999 3.12712,1.266451 4.79617,1.266451 h 14.88945 c 1.67008,0 3.31627,0.434453 4.79721,1.266452 l 12.9211,7.256912 c 3.00656,1.688564 6.58785,1.688564 9.59442,0 l 10.37907,-5.829266 c 3.00657,-1.688564 6.58681,-1.688564 9.59442,0 l 8.27457,4.64773 c 4.09157,2.297561 9.09559,1.410484 12.29132,-2.178543 l 13.40018,-15.052486 c 0.78359,-0.879561 1.69399,-1.615426 2.69687,-2.178543 l 11.55863,-6.4915892 c 4.09051,-2.2975603 9.09558,-1.4104948 12.29026,2.1785882 l 9.19327,10.32657 c 3.19571,3.589138 8.19975,4.476103 12.2913,2.178543 l 8.27561,-4.647731 c 3.00658,-1.688564 6.58682,-1.688564 9.59339,0 l 10.37907,5.829266 c 3.00761,1.688564 6.58785,1.688564 9.59442,0 l 15.17628,-8.523363 V 56.195437 H -5.6538581 Z"
       fill="url(#paint0_linear_1305_5001)"
       id="path2"
       style="fill:url(#paint0_linear_1305_5001);stroke-width:1.07972" />
  </g>
  <defs
     id="defs36">
    <filter
       id="filter0_dd_1305_5001"
       x="-36"
       y="-3.67438"
       width="379.5"
       height="114.674"
       filterUnits="userSpaceOnUse"
       color-interpolation-filters="sRGB">
      <feFlood
         flood-opacity="0"
         result="BackgroundImageFix"
         id="feFlood6" />
      <feColorMatrix
         in="SourceAlpha"
         type="matrix"
         values="0 0 0 0 0 0 0 0 0 0 0 0 0 0 0 0 0 0 127 0"
         result="hardAlpha"
         id="feColorMatrix8" />
      <feOffset
         dy="24"
         id="feOffset10" />
      <feGaussianBlur
         stdDeviation="18"
         id="feGaussianBlur12" />
      <feColorMatrix
         type="matrix"
         values="0 0 0 0 0 0 0 0 0 0 0 0 0 0 0 0 0 0 0.04 0"
         id="feColorMatrix14" />
      <feBlend
         mode="normal"
         in2="BackgroundImageFix"
         result="effect1_dropShadow_1305_5001"
         id="feBlend16" />
      <feColorMatrix
         in="SourceAlpha"
         type="matrix"
         values="0 0 0 0 0 0 0 0 0 0 0 0 0 0 0 0 0 0 127 0"
         result="hardAlpha"
         id="feColorMatrix18" />
      <feOffset
         dy="3"
         id="feOffset20" />
      <feGaussianBlur
         stdDeviation="2"
         id="feGaussianBlur22" />
      <feColorMatrix
         type="matrix"
         values="0 0 0 0 0 0 0 0 0 0 0 0 0 0 0 0 0 0 0.1 0"
         id="feColorMatrix24" />
      <feBlend
         mode="normal"
         in2="effect1_dropShadow_1305_5001"
         result="effect2_dropShadow_1305_5001"
         id="feBlend26" />
      <feBlend
         mode="normal"
         in="SourceGraphic"
         in2="effect2_dropShadow_1305_5001"
         result="shape"
         id="feBlend28" />
    </filter>
    <linearGradient
       id="paint0_linear_1305_5001"
       x1="307.5"
       y1="24.0001"
       x2="-27.5831"
       y2="24.0001"
       gradientUnits="userSpaceOnUse"
       gradientTransform="matrix(1.0392576,0,0,1.1217461,-5.6538581,-1.0136125)">
      <stop
         stop-color="#40C3F7"
         id="stop31" />
      <stop
         offset="1"
         stop-color="white"
         id="stop33" />
    </linearGradient>
  </defs>
</svg>
