<svg xmlns="http://www.w3.org/2000/svg" version="1.1" xmlns:xlink="http://www.w3.org/1999/xlink" width="512" height="512" x="0" y="0" viewBox="0 0 24 24" style="enable-background:new 0 0 512 512" xml:space="preserve" class=""><g><path d="m17.846 14.217-4.393-1.892a3.737 3.737 0 0 0-2.948.002s-4.365 1.89-4.365 1.89c-.723.313-1.172.997-1.173 1.784s.447 1.472 1.168 1.787L8 18.602v2.592c0 .974.57 1.866 1.454 2.273.769.354 1.625.533 2.546.533s1.777-.18 2.548-.533A2.51 2.51 0 0 0 16 21.194v-2.6l1-.434v2.841a1 1 0 1 0 2 0v-5c0-.777-.441-1.478-1.154-1.783Zm-6.546-.054c.432-.188.93-.188 1.362-.002l4.35 1.777c0 .014-.007.025-.008.039l-4.335 1.883a1.722 1.722 0 0 1-1.372-.002l-4.363-1.805 4.365-1.89Zm2.7 7.03a.498.498 0 0 1-.289.457c-1.01.463-2.413.463-3.421 0a.497.497 0 0 1-.29-.457v-1.719l.498.217a3.726 3.726 0 0 0 2.969.002l.533-.232v1.732ZM7 4.5a1.5 1.5 0 1 1-3.001-.001A1.5 1.5 0 0 1 7 4.5Zm4 0a1.5 1.5 0 1 1-3.001-.001A1.5 1.5 0 0 1 11 4.5ZM19 0H5C2.243 0 0 2.243 0 5v12c0 2.757 2.243 5 5 5a1 1 0 1 0 0-2c-1.654 0-3-1.346-3-3V9h20v8c0 .731-.266 1.436-.749 1.983a1 1 0 1 0 1.5 1.322A4.989 4.989 0 0 0 24 16.999V5c0-2.757-2.243-5-5-5ZM2 7V5c0-1.654 1.346-3 3-3h14c1.654 0 3 1.346 3 3v2H2Z" fill="#9983f5" opacity="1" data-original="#000000"></path></g></svg>