<svg xmlns="http://www.w3.org/2000/svg" version="1.1" xmlns:xlink="http://www.w3.org/1999/xlink" width="512" height="512" x="0" y="0" viewBox="0 0 24 24" style="enable-background:new 0 0 512 512" xml:space="preserve" class=""><g><path d="M16 3c0-1.654-1.346-3-3-3H3C1.346 0 0 1.346 0 3v17.5C0 22.43 1.57 24 3.5 24H16c1.654 0 3-1.346 3-3v-3h-3V3Zm1 17v1a1 1 0 0 1-1 1H6.662c.217-.455.338-.964.338-1.5V20h10ZM5 18v2.5c0 .827-.673 1.5-1.5 1.5S2 21.327 2 20.5V3a1 1 0 0 1 1-1h10a1 1 0 0 1 1 1v15H5ZM21 0c-1.654 0-3 1.346-3 3v12.414l3 3 3-3V3c0-1.654-1.346-3-3-3Zm1 14.586-1 1-1-1V3a1 1 0 0 1 2 0v11.586ZM8.602 4.293l1.414 1.414-2.827 2.827c-.31.31-.717.465-1.124.465s-.814-.155-1.124-.465L3.294 6.887l1.414-1.414L6.065 6.83l2.537-2.537Zm0 6 1.414 1.414-2.827 2.827c-.31.31-.717.465-1.124.465s-.814-.155-1.124-.465l-1.647-1.647 1.414-1.414 1.357 1.357 2.537-2.537Z" fill="#f8ce57" opacity="1" data-original="#000000" class=""></path></g></svg>