<?xml version="1.0" encoding="UTF-8" standalone="no"?>
<!-- Generator: Adobe Illustrator 27.5.0, SVG Export Plug-In . SVG Version: 6.00 Build 0)  -->

<svg
   version="1.1"
   id="Layer_1"
   x="0px"
   y="0px"
   viewBox="0 0 159 153"
   xml:space="preserve"
   sodipodi:docname="student-greeting.svg"
   width="159"
   height="153"
   inkscape:version="1.2.2 (732a01da63, 2022-12-09)"
   xmlns:inkscape="http://www.inkscape.org/namespaces/inkscape"
   xmlns:sodipodi="http://sodipodi.sourceforge.net/DTD/sodipodi-0.dtd"
   xmlns="http://www.w3.org/2000/svg"
   xmlns:svg="http://www.w3.org/2000/svg"><defs
   id="defs431" /><sodipodi:namedview
   id="namedview429"
   pagecolor="#ffffff"
   bordercolor="#000000"
   borderopacity="0.25"
   inkscape:showpageshadow="2"
   inkscape:pageopacity="0.0"
   inkscape:pagecheckerboard="0"
   inkscape:deskcolor="#d1d1d1"
   showgrid="false"
   inkscape:zoom="1.658"
   inkscape:cx="92.882991"
   inkscape:cy="111.27865"
   inkscape:window-width="1493"
   inkscape:window-height="862"
   inkscape:window-x="-8"
   inkscape:window-y="1072"
   inkscape:window-maximized="1"
   inkscape:current-layer="g406" />

<g
   id="g426">
	<g
   id="g406"
   transform="translate(-12.794453,-15.140103)">
		<circle
   style="opacity:0.4;fill:#d3f3f6;fill-opacity:1;stroke-width:1.4378"
   id="path791"
   cx="88.090614"
   cy="90.009781"
   r="74.656433" /><path
   style="fill:#832ce5;stroke-width:1.65143"
   d="m 149.71178,161.18254 c 13.68871,-13.48394 0,0 0,0 z"
   id="path4"
   sodipodi:nodetypes="cc" />
		<g
   id="g8"
   transform="matrix(1.6514327,0,0,1.6514327,-8.7514625,-10.001672)">
			<path
   style="fill:#ffffff"
   d="m 29.34,104.158 -0.146,-0.144 c -8.758,-8.628 0.146,0.144 0.146,0.144 z"
   id="path6"
   sodipodi:nodetypes="ccc" />
		</g>
		<ellipse
   style="fill:#611940;stroke-width:1.64349"
   cx="97.543007"
   cy="160.30612"
   rx="74.10144"
   ry="6.4179702"
   id="ellipse10" />
		<g
   id="g404"
   transform="matrix(1.6458483,0,0,1.6514327,-8.6410285,-10.001672)">
			<g
   id="g346">
				<g
   id="g26">
					<g
   id="g16">
						<g
   id="g14">
							<path
   style="fill:#611940"
   d="m 40.159,64.641 c -0.032,0.084 -2.199,5.912 -3.768,12.884 -0.074,0.331 -0.148,0.666 -0.219,1.002 -0.599,2.81 -1.082,5.765 -1.279,8.578 -0.018,0.264 -0.238,0.465 -0.498,0.465 -0.012,0 -0.024,-10e-4 -0.035,-10e-4 -0.276,-0.019 -0.483,-0.258 -0.464,-0.534 0.209,-2.979 0.734,-6.114 1.376,-9.07 0.01,-0.045 0.019,-0.09 0.029,-0.135 0.014,-0.064 0.028,-0.128 0.043,-0.192 0.096,-0.433 0.194,-0.862 0.293,-1.285 1.561,-6.62 3.555,-11.982 3.586,-12.063 0.097,-0.259 0.385,-0.39 0.644,-0.293 0.258,0.097 0.389,0.385 0.292,0.644 z"
   id="path12" />
						</g>
					</g>
					<g
   id="g20">
						<path
   style="fill:#611940"
   d="m 47.222,58.181 c -0.677,-2.944 -1.559,-4.894 -1.597,-4.976 -0.09,-0.198 -0.298,-0.315 -0.513,-0.289 -0.096,0.011 -2.36,0.293 -4.991,1.673 -1.548,0.812 -2.903,1.839 -4.025,3.051 -1.405,1.517 -2.445,3.328 -3.093,5.383 -1.458,4.628 -0.706,8.401 0.182,10.751 0.773,2.047 1.765,3.383 2.158,3.864 0.013,0.017 0.027,0.033 0.04,0.049 -0.035,0.042 -0.063,0.09 -0.082,0.143 -0.014,0.038 -0.023,0.078 -0.028,0.12 -0.001,0.005 -0.001,0.01 -0.001,0.015 -0.021,0.269 0.175,0.506 0.445,0.535 0.14,0.015 0.292,0.024 0.455,0.026 0.035,0.001 0.071,0.001 0.107,0.001 1.415,0 3.56,-0.455 5.522,-1.552 2.055,-1.148 4.709,-3.439 5.684,-7.831 0.917,-4.128 0.363,-8.24 -0.263,-10.963 z m -0.713,10.748 c -0.894,4.03 -3.319,6.126 -5.196,7.175 -1.847,1.032 -3.762,1.396 -4.922,1.421 -0.004,10e-4 -0.008,10e-4 -0.012,10e-4 0.007,-0.128 -0.035,-0.26 -0.129,-0.362 -0.005,-0.007 -0.258,-0.287 -0.614,-0.81 -0.44,-0.644 -1.038,-1.656 -1.531,-2.974 -1.195,-3.192 -1.245,-6.575 -0.148,-10.056 1.091,-3.464 3.31,-6.099 6.596,-7.832 1.876,-0.989 3.586,-1.387 4.311,-1.522 0.645,1.585 3.121,8.31 1.645,14.959 z"
   id="path18" />
					</g>
					<g
   id="g24">
						<path
   style="fill:#08bf94"
   d="m 46.509,68.929 c -0.894,4.03 -3.319,6.126 -5.196,7.175 -1.847,1.032 -3.762,1.396 -4.922,1.421 1.569,-6.972 3.736,-12.8 3.768,-12.884 0.097,-0.258 -0.034,-0.546 -0.293,-0.644 -0.259,-0.097 -0.547,0.034 -0.644,0.293 -0.03,0.081 -2.025,5.443 -3.586,12.063 -0.44,-0.644 -1.038,-1.656 -1.531,-2.974 -1.195,-3.192 -1.245,-6.575 -0.148,-10.056 1.091,-3.464 3.31,-6.099 6.596,-7.832 1.876,-0.989 3.586,-1.387 4.311,-1.522 0.645,1.586 3.121,8.311 1.645,14.96 z"
   id="path22" />
					</g>
				</g>
				<g
   id="g72">
					<path
   style="fill:#ff8d47"
   d="m 52.759,57.989 c -0.962,0.031 -1.958,0.063 -2.928,0.088 -5.415,0.141 -7.896,1.61 -9.025,2.818 -1.157,1.238 -1.141,2.45 -1.14,2.462 0,0.004 0,0.008 0,0.012 0.087,1.883 0.586,3.872 2,5.61 2.569,3.158 7.678,4.869 15.185,5.087 7.508,-0.217 12.617,-1.929 15.185,-5.087 1.484,-1.825 1.96,-3.926 2.01,-5.891 C 72.4,57.359 62.416,57.679 52.759,57.989 Z"
   id="path28" />
					<path
   style="opacity:0.2;fill:#ffffff"
   d="m 42.417,69.373 c -1.414,-1.738 -1.913,-3.727 -2,-5.61 0,-0.004 0,-0.008 0,-0.012 -0.001,-0.012 -0.017,-1.224 1.14,-2.462 1.129,-1.207 3.61,-2.676 9.025,-2.818 0.97,-0.025 1.966,-0.057 2.928,-0.088 6.819,-0.219 13.801,-0.443 17.895,1.462 -3.949,-2.327 -11.39,-2.088 -18.647,-1.855 -0.962,0.031 -1.958,0.063 -2.928,0.088 -5.415,0.141 -7.896,1.61 -9.025,2.818 -1.157,1.238 -1.141,2.45 -1.14,2.462 0,0.004 0,0.008 0,0.012 0.087,1.883 0.586,3.872 2,5.61 0.917,1.127 2.158,2.07 3.716,2.827 -1.21,-0.683 -2.2,-1.495 -2.964,-2.434 z"
   id="path30" />
					<path
   style="fill:#611940"
   d="m 56.86,61.493 c -3.036,0 -3.658,0.51 -3.658,1.275 0,1.265 1.675,2.335 3.658,2.335 1.983,0 3.658,-1.069 3.658,-2.335 0,-0.765 -0.623,-1.275 -3.658,-1.275 z"
   id="path32" />
					<path
   style="fill:#611940"
   d="m 59.69,60.993 c -0.808,-0.274 -1.884,-0.311 -2.83,-0.311 -0.946,0 -2.022,0.037 -2.83,0.311 -1.194,0.405 -1.445,1.219 -1.445,1.831 0,0.862 0.47,1.658 1.323,2.244 0.675,0.463 1.532,0.749 2.452,0.825 v 3.023 c 0,0.276 0.224,0.5 0.5,0.5 0.276,0 0.5,-0.224 0.5,-0.5 v -3.023 c 0.921,-0.076 1.778,-0.362 2.452,-0.825 0.853,-0.585 1.323,-1.382 1.323,-2.244 0,-0.612 -0.251,-1.426 -1.445,-1.831 z m -2.83,3.921 c -1.775,0 -3.275,-0.957 -3.275,-2.09 0,-0.685 0.557,-1.142 3.275,-1.142 2.718,0 3.275,0.456 3.275,1.142 0,1.133 -1.5,2.09 -3.275,2.09 z"
   id="path34" />
					<path
   style="fill:#ff8d47"
   d="m 40.546,54.212 c -0.057,1.223 -0.112,2.378 -0.282,3.444 -0.039,0.246 -0.088,0.519 -0.139,0.808 -0.108,0.606 -0.233,1.307 -0.327,2.067 0.086,-0.106 0.178,-0.213 0.278,-0.319 1.831,-1.959 5.105,-3.014 9.729,-3.134 0.967,-0.025 1.961,-0.057 2.922,-0.088 4.956,-0.159 10.081,-0.324 14.116,0.334 3.395,0.554 5.735,1.66 7.079,3.358 -0.096,-0.819 -0.23,-1.571 -0.345,-2.217 -0.002,-0.01 -0.004,-0.02 -0.005,-0.03 0,0 0,-0.001 0,-0.001 -0.049,-0.277 -0.096,-0.54 -0.134,-0.777 -0.17,-1.066 -0.224,-2.221 -0.282,-3.444 -0.167,-3.548 -0.355,-7.57 -3.626,-10.318 -4.328,-3.636 -12.41,-3.835 -12.679,-3.841 -0.265,0.005 -8.354,0.208 -12.679,3.841 -3.271,2.747 -3.46,6.769 -3.626,10.317 z"
   id="path36" />
					<path
   style="fill:#ff8d47"
   d="m 77.899,45.644 c -2.134,-1.665 -5.254,-1.792 -6.887,-1.725 2.799,2.952 2.981,6.809 3.142,10.246 0.056,1.194 0.109,2.323 0.27,3.334 0.014,0.089 0.03,0.184 0.047,0.282 0.892,-0.165 2.923,-0.708 4.295,-2.357 1.134,-1.363 1.593,-3.203 1.365,-5.468 -0.186,-1.852 -0.937,-3.302 -2.232,-4.312 z"
   id="path38" />
					<path
   style="fill:#ff8d47"
   d="m 39.277,57.499 c 0.161,-1.011 0.214,-2.139 0.27,-3.334 0.161,-3.435 0.343,-7.288 3.135,-10.239 -1.592,-0.078 -4.838,0.008 -7.029,1.72 -1.293,1.01 -2.043,2.46 -2.229,4.309 -0.229,2.269 0.233,4.112 1.371,5.476 1.456,1.745 3.633,2.246 4.43,2.375 0.019,-0.106 0.036,-0.21 0.052,-0.307 z"
   id="path40" />
					<path
   style="opacity:0.2;fill:#ffffff"
   d="m 33.424,50.65 c 0.186,-1.85 0.936,-3.299 2.229,-4.309 1.95,-1.523 4.734,-1.759 6.446,-1.738 0.181,-0.23 0.375,-0.456 0.583,-0.677 -1.592,-0.078 -4.838,0.008 -7.029,1.72 -1.293,1.01 -2.043,2.46 -2.229,4.309 -0.051,0.502 -0.067,0.983 -0.05,1.442 0.008,-0.243 0.024,-0.492 0.05,-0.747 z"
   id="path42" />
					<path
   style="fill:#611940"
   d="m 78.514,44.856 c -2.979,-2.324 -7.454,-1.985 -8.512,-1.867 -1.953,-1.574 -4.734,-2.713 -8.27,-3.386 -2.691,-0.512 -4.786,-0.548 -4.874,-0.549 -0.002,0 -0.004,0 -0.006,0 -0.003,0 -0.005,0 -0.008,0 -0.088,10e-4 -2.183,0.037 -4.874,0.549 -3.548,0.675 -6.335,1.819 -8.289,3.401 -0.758,-0.096 -5.519,-0.583 -8.64,1.851 -1.518,1.184 -2.397,2.866 -2.612,5 -0.257,2.547 0.281,4.638 1.598,6.217 1.665,1.995 4.075,2.567 5.024,2.72 -0.22,1.263 -0.458,2.862 -0.386,4.57 0,0.019 0,0.032 10e-4,0.037 0,0.005 0.001,0.011 0.001,0.016 10e-4,0.032 0.002,0.064 0.004,0.096 0.127,2.394 0.873,4.447 2.218,6.1 1.294,1.592 3.172,2.853 5.58,3.748 2.727,1.014 6.214,1.588 10.366,1.708 0.005,0 0.009,0 0.014,0 0,0 0,0 0,0 0,0 0,0 0,0 0,0 0,0 0,0 0,0 0,0 0,0 0.005,0 0.009,0 0.014,0 4.152,-0.119 7.639,-0.694 10.366,-1.708 2.408,-0.896 4.286,-2.157 5.58,-3.748 1.345,-1.653 2.091,-3.706 2.218,-6.1 0.008,-0.156 0.013,-0.31 0.016,-0.464 10e-4,-0.011 10e-4,-0.023 10e-4,-0.035 0.029,-1.586 -0.195,-3.063 -0.401,-4.243 1.03,-0.185 3.295,-0.794 4.882,-2.696 1.317,-1.578 1.855,-3.67 1.598,-6.217 -0.212,-2.134 -1.091,-3.816 -2.609,-5 z M 56.851,40.054 c 0.269,0.005 8.35,0.205 12.679,3.841 3.271,2.747 3.46,6.769 3.626,10.318 0.057,1.223 0.112,2.378 0.282,3.444 0.038,0.237 0.084,0.499 0.134,0.777 0,0 0,0.001 0,0.001 0.002,0.01 0.004,0.02 0.005,0.03 0.115,0.646 0.249,1.399 0.345,2.217 -1.344,-1.698 -3.683,-2.804 -7.079,-3.358 -4.036,-0.658 -9.161,-0.494 -14.116,-0.334 -0.961,0.031 -1.955,0.063 -2.922,0.088 -4.625,0.121 -7.898,1.175 -9.729,3.134 -0.1,0.107 -0.192,0.213 -0.278,0.319 0.094,-0.76 0.219,-1.461 0.327,-2.067 0.052,-0.289 0.1,-0.562 0.139,-0.808 0.17,-1.066 0.224,-2.221 0.282,-3.444 0.167,-3.548 0.355,-7.57 3.626,-10.318 4.324,-3.632 12.413,-3.835 12.679,-3.84 z M 34.795,55.431 c -1.139,-1.364 -1.6,-3.207 -1.371,-5.476 0.186,-1.85 0.936,-3.299 2.229,-4.309 2.191,-1.712 5.437,-1.798 7.029,-1.72 -2.793,2.951 -2.974,6.805 -3.135,10.239 -0.056,1.194 -0.109,2.323 -0.27,3.334 -0.015,0.097 -0.033,0.201 -0.051,0.307 -0.798,-0.129 -2.974,-0.63 -4.431,-2.375 z M 72.036,68.98 c -2.569,3.158 -7.678,4.869 -15.185,5.087 -7.508,-0.217 -12.617,-1.929 -15.185,-5.087 -1.414,-1.738 -1.913,-3.727 -2,-5.61 0,-0.004 0,-0.008 0,-0.012 -10e-4,-0.012 -0.017,-1.224 1.14,-2.462 1.129,-1.207 3.61,-2.676 9.025,-2.818 0.97,-0.025 1.966,-0.057 2.928,-0.088 9.658,-0.31 19.642,-0.63 21.287,5.099 -0.05,1.965 -0.526,4.066 -2.01,5.891 z m 6.73,-13.556 c -1.371,1.649 -3.402,2.192 -4.295,2.357 -0.017,-0.098 -0.033,-0.193 -0.047,-0.282 -0.161,-1.011 -0.214,-2.139 -0.27,-3.334 -0.161,-3.437 -0.343,-7.295 -3.142,-10.246 1.633,-0.067 4.754,0.06 6.887,1.725 1.294,1.01 2.045,2.461 2.232,4.312 0.228,2.265 -0.231,4.104 -1.365,5.468 z"
   id="path44" />
					<ellipse
   style="fill:#611940"
   cx="48.091999"
   cy="55.924"
   rx="1.34"
   ry="1.654"
   id="ellipse46" />
					<ellipse
   style="fill:#611940"
   cx="65.405998"
   cy="55.924"
   rx="1.34"
   ry="1.654"
   id="ellipse48" />
					<g
   style="opacity:0.2"
   id="g56">
						<path
   style="fill:#611940"
   d="m 72.036,68.98 c 1.484,-1.825 1.96,-3.926 2.01,-5.891 -0.687,-2.394 -2.832,-3.731 -5.799,-4.455 0.119,0.515 3.589,13.351 -13.657,15.317 0.728,0.055 1.481,0.094 2.261,0.116 7.507,-0.218 12.616,-1.929 15.185,-5.087 z"
   id="path50" />
						<path
   style="fill:#611940"
   d="m 78.583,55.633 c -0.77,-0.665 -2.346,-2.416 -3.516,-6.296 -0.61,-2.022 -0.85,-3.799 -0.914,-5.225 -1.208,-0.212 -2.349,-0.225 -3.141,-0.193 2.799,2.952 2.981,6.809 3.142,10.246 0.056,1.194 0.109,2.323 0.27,3.334 0.014,0.089 0.03,0.184 0.047,0.282 0.854,-0.158 2.748,-0.662 4.112,-2.148 z"
   id="path52" />
						<path
   style="fill:#611940"
   d="m 70.601,48.753 c 2.403,4.969 -0.185,7.742 -1.582,9.042 2.243,0.624 3.868,1.58 4.903,2.887 -0.096,-0.819 -0.23,-1.571 -0.345,-2.217 -0.002,-0.01 -0.004,-0.02 -0.005,-0.03 0,0 0,-0.001 0,-0.001 -0.049,-0.277 -0.096,-0.54 -0.134,-0.777 -0.17,-1.066 -0.224,-2.221 -0.282,-3.444 -0.167,-3.548 -0.355,-7.57 -3.626,-10.318 -4.328,-3.636 -12.41,-3.835 -12.679,-3.841 0,0 10.543,2.067 13.75,8.699 z"
   id="path54" />
					</g>
					<path
   style="opacity:0.3;fill:#611940"
   d="m 60.752,61.682 c 0,0 1.984,2.431 -0.421,3.771 -2.405,1.34 -2.776,0.518 -2.971,2.923 0,0 -0.457,-0.7 -0.509,-0.792 -0.052,-0.092 -0.478,-2.831 -0.447,-2.923 0.03,-0.091 4.348,-2.979 4.348,-2.979 z"
   id="path58" />
					<path
   style="opacity:0.3;fill:#611940"
   d="m 38.491,54.269 c -0.447,3.146 -4.305,0.272 -4.305,0.272 0.175,0.316 0.378,0.613 0.609,0.89 1.456,1.745 3.633,2.246 4.43,2.375 0.018,-0.107 0.036,-0.21 0.051,-0.307 0.161,-1.011 0.214,-2.139 0.27,-3.334 0.137,-2.925 0.29,-6.153 2.056,-8.87 -1.393,1.4 -2.665,5.828 -3.111,8.974 z"
   id="path60" />
					<path
   style="opacity:0.2;fill:#ffffff"
   d="m 51.782,42.338 c -0.826,-1.308 -3.566,-1.062 -6.137,0.543 0.055,-0.039 0.109,-0.078 0.166,-0.117 -0.585,0.334 -1.137,0.709 -1.639,1.13 -3.271,2.747 -3.46,6.769 -3.626,10.318 -0.057,1.223 -0.112,2.378 -0.282,3.444 -0.039,0.246 -0.088,0.519 -0.139,0.808 -0.108,0.606 -0.233,1.307 -0.327,2.067 0.086,-0.106 0.178,-0.213 0.278,-0.319 1.416,-1.515 3.696,-2.489 6.795,-2.908 0,0 10e-4,-0.001 10e-4,-0.001 0,0 -2.169,-0.242 -4.188,0.544 -2.019,0.785 -1.14,-1.437 -1.26,-3.051 -0.074,-0.997 -0.247,-4.088 0.787,-7.089 0.035,0.197 0.104,0.38 0.209,0.546 0.832,1.316 3.602,1.059 6.188,-0.575 2.584,-1.632 4.005,-4.024 3.174,-5.34 z"
   id="path62" />
					<path
   style="opacity:0.2;fill:#ffffff"
   d="m 56.86,61.991 c 2.708,0 3.495,0.405 3.634,1.036 0.015,-0.085 0.024,-0.171 0.024,-0.258 0,-0.765 -0.622,-1.275 -3.658,-1.275 -3.036,0 -3.658,0.51 -3.658,1.275 0,0.087 0.009,0.173 0.024,0.258 0.138,-0.631 0.926,-1.036 3.634,-1.036 z"
   id="path64" />
					<g
   id="g70">
						<ellipse
   style="fill:#ff48d4"
   cx="46.473"
   cy="62.153999"
   rx="2.9590001"
   ry="1.472"
   id="ellipse66" />
						<ellipse
   style="fill:#ff48d4"
   cx="67.277"
   cy="62.153999"
   rx="2.9590001"
   ry="1.472"
   id="ellipse68" />
					</g>
				</g>
				<g
   id="g76">
					<path
   style="fill:#611940"
   d="m 54.079,94.949 c -0.414,-0.355 -1.326,-1.114 -2.527,-1.978 -10e-4,0 -10e-4,0 -10e-4,0 -0.818,-0.588 -1.77,-1.225 -2.789,-1.817 -10e-4,0 -10e-4,0 -10e-4,0 -1.622,-0.941 -3.415,-1.77 -5.117,-2.105 l 0.079,0.307 c 0.069,0.267 -0.091,0.54 -0.359,0.609 -0.042,0.011 -0.084,0.016 -0.125,0.016 -0.004,0 -0.009,0 -0.013,-10e-4 4.23,0.708 9.507,5.131 10.202,5.727 0.103,0.089 0.195,0.202 0.275,0.337 -0.012,-0.025 -0.022,-0.051 -0.03,-0.079 -0.077,-0.265 0.075,-0.542 0.339,-0.619 0.024,-0.007 0.153,-0.044 0.359,-0.09 -0.09,-0.115 -0.188,-0.218 -0.292,-0.307 z m 0.771,1.232 c -0.125,-0.367 -0.284,-0.675 -0.479,-0.924 -0.09,-0.116 -0.188,-0.219 -0.292,-0.308 -0.414,-0.355 -1.326,-1.114 -2.527,-1.978 -10e-4,0 -10e-4,0 -10e-4,0 -0.818,-0.588 -1.77,-1.225 -2.789,-1.817 -10e-4,0 -10e-4,0 -10e-4,0 -1.622,-0.941 -3.415,-1.77 -5.117,-2.105 -0.362,-0.071 -0.719,-0.12 -1.07,-0.144 -0.476,-0.031 -0.938,-0.015 -1.383,0.057 -0.215,0.035 -0.426,0.083 -0.632,0.146 -0.114,0.035 -0.225,0.073 -0.334,0.116 -1.452,0.565 -2.467,1.835 -3.018,3.777 -0.146,0.319 -0.886,2.126 -0.05,4.18 0.707,1.737 2.316,3.128 4.788,4.144 0.271,0.111 0.552,0.218 0.844,0.32 0.047,0.017 0.096,0.033 0.142,0.05 3.806,1.318 6.606,1.665 8.499,1.665 1.079,0 1.863,-0.113 2.371,-0.223 0.443,-0.095 0.677,-0.189 0.712,-0.204 0.153,-0.065 0.265,-0.2 0.297,-0.364 0.003,-0.015 0.024,-0.119 0.054,-0.292 0.088,-0.505 0.257,-1.6 0.311,-2.808 0.062,-1.377 -0.047,-2.476 -0.325,-3.288 z m -11.729,4.521 c -0.171,-0.06 -0.339,-0.122 -0.502,-0.185 -2.374,-0.918 -3.896,-2.16 -4.529,-3.697 -0.736,-1.79 0.024,-3.399 0.036,-3.423 0.014,-0.027 0.025,-0.057 0.033,-0.086 0.499,-1.787 1.379,-2.849 2.691,-3.247 0.044,-0.013 0.088,-0.026 0.132,-0.038 0.007,-0.002 0.014,-0.004 0.021,-0.005 0.004,-0.001 0.008,-0.002 0.012,-0.003 0.64,-0.163 1.343,-0.169 2.081,-0.058 0.001,0 0.001,0 0.001,0 0,0 10e-4,0 10e-4,0 0.042,0.006 0.085,0.013 0.127,0.02 4.23,0.708 9.507,5.131 10.202,5.727 0.103,0.089 0.195,0.202 0.275,0.337 0.007,0.013 0.014,0.027 0.023,0.04 0.689,1.235 0.501,4.117 0.161,6.003 -0.368,0.101 -1.157,0.265 -2.388,0.272 -1.644,0.007 -4.43,-0.274 -8.377,-1.657 z m 10.958,-5.753 c -0.414,-0.355 -1.326,-1.114 -2.527,-1.978 -10e-4,0 -10e-4,0 -10e-4,0 -0.818,-0.588 -1.77,-1.225 -2.789,-1.817 -10e-4,0 -10e-4,0 -10e-4,0 -1.622,-0.941 -3.415,-1.77 -5.117,-2.105 l 0.079,0.307 c 0.069,0.267 -0.091,0.54 -0.359,0.609 -0.042,0.011 -0.084,0.016 -0.125,0.016 -0.004,0 -0.009,0 -0.013,-10e-4 4.23,0.708 9.507,5.131 10.202,5.727 0.103,0.089 0.195,0.202 0.275,0.337 -0.012,-0.025 -0.022,-0.051 -0.03,-0.079 -0.077,-0.265 0.075,-0.542 0.339,-0.619 0.024,-0.007 0.153,-0.044 0.359,-0.09 -0.09,-0.115 -0.188,-0.218 -0.292,-0.307 z m 0,0 c -0.414,-0.355 -1.326,-1.114 -2.527,-1.978 -10e-4,0 -10e-4,0 -10e-4,0 -0.818,-0.588 -1.77,-1.225 -2.789,-1.817 -10e-4,0 -10e-4,0 -10e-4,0 -1.622,-0.941 -3.415,-1.77 -5.117,-2.105 l 0.079,0.307 c 0.069,0.267 -0.091,0.54 -0.359,0.609 -0.042,0.011 -0.084,0.016 -0.125,0.016 -0.004,0 -0.009,0 -0.013,-10e-4 4.23,0.708 9.507,5.131 10.202,5.727 0.103,0.089 0.195,0.202 0.275,0.337 -0.012,-0.025 -0.022,-0.051 -0.03,-0.079 -0.077,-0.265 0.075,-0.542 0.339,-0.619 0.024,-0.007 0.153,-0.044 0.359,-0.09 -0.09,-0.115 -0.188,-0.218 -0.292,-0.307 z"
   id="path74" />
				</g>
				<g
   id="g80">
					<path
   style="fill:#ff8d47"
   d="m 53.886,102.087 c -0.368,0.101 -1.157,0.265 -2.388,0.272 -1.643,0.007 -4.43,-0.274 -8.377,-1.657 -0.171,-0.06 -0.339,-0.122 -0.502,-0.185 -2.374,-0.918 -3.896,-2.16 -4.529,-3.697 -0.736,-1.79 0.024,-3.399 0.036,-3.423 0.014,-0.027 0.025,-0.057 0.033,-0.086 0.499,-1.787 1.379,-2.849 2.691,-3.247 0.044,-0.013 0.088,-0.026 0.132,-0.038 0.007,-0.002 0.014,-0.004 0.021,-0.005 0.004,-0.001 0.008,-0.002 0.012,-0.003 0.64,-0.163 1.343,-0.169 2.081,-0.058 0.001,0 0.001,0 0.001,0 0,0.001 10e-4,0.001 10e-4,0 0.041,0.013 0.083,0.019 0.127,0.02 4.23,0.708 9.507,5.131 10.202,5.727 0.103,0.089 0.195,0.202 0.275,0.337 0.007,0.013 0.014,0.027 0.023,0.04 0.689,1.236 0.501,4.118 0.161,6.003 z"
   id="path78" />
				</g>
				<g
   id="g86">
					<g
   id="g84">
						<path
   style="fill:#611940"
   d="m 75.872,97.181 c -0.784,1.927 -2.679,3.429 -5.632,4.464 -2.858,1.002 -5.47,1.57 -7.765,1.69 -0.309,0.016 -0.6,0.023 -0.873,0.023 -1.322,0 -2.202,-0.169 -2.669,-0.292 -0.022,-0.006 -0.043,-0.012 -0.063,-0.017 -0.266,-0.074 -0.422,-0.349 -0.348,-0.615 0.074,-0.266 0.349,-0.423 0.615,-0.348 0.152,0.042 0.378,0.096 0.68,0.144 1.468,0.236 4.734,0.35 10.093,-1.528 2.662,-0.933 4.354,-2.239 5.03,-3.882 0.738,-1.794 -0.028,-3.407 -0.036,-3.423 -0.013,-0.027 -0.025,-0.057 -0.033,-0.086 -0.499,-1.787 -1.379,-2.849 -2.691,-3.247 -0.048,-0.015 -0.094,-0.028 -0.142,-0.041 0,0 0,0 -10e-4,0 -0.139,-0.036 -0.281,-0.065 -0.426,-0.086 H 71.61 c -2.046,-0.308 -4.642,0.795 -6.903,2.121 -0.004,0.002 -0.007,0.005 -0.012,0.007 -2.55,1.498 -4.671,3.28 -5.094,3.642 -0.114,0.097 -0.217,0.231 -0.307,0.398 -0.028,0.051 -0.054,0.105 -0.08,0.162 -0.112,0.252 -0.407,0.366 -0.659,0.254 -0.253,-0.111 -0.367,-0.407 -0.255,-0.659 0.055,-0.124 0.115,-0.241 0.181,-0.349 0.135,-0.223 0.292,-0.412 0.469,-0.564 0.413,-0.354 1.323,-1.111 2.522,-1.974 0.818,-0.589 1.771,-1.227 2.792,-1.819 1.539,-0.894 3.235,-1.685 4.859,-2.051 0.364,-0.082 0.724,-0.142 1.078,-0.178 0.48,-0.048 0.948,-0.05 1.399,0.002 0.298,0.035 0.588,0.094 0.868,0.179 0.037,0.012 0.074,0.023 0.111,0.036 1.572,0.519 2.662,1.817 3.241,3.857 0.148,0.319 0.888,2.127 0.052,4.18 z"
   id="path82" />
					</g>
				</g>
				<g
   id="g92">
					<g
   id="g90">
						<path
   style="fill:#611940"
   d="m 59.816,102.23 c -0.11,0.19 -0.245,0.361 -0.41,0.51 -0.141,0.128 -0.299,0.236 -0.474,0.326 -0.516,0.267 -1.185,0.378 -2.016,0.378 -0.86,0 -1.894,-0.119 -3.115,-0.306 -0.032,-0.005 -0.063,-0.01 -0.096,-0.015 -0.273,-0.043 -0.46,-0.298 -0.417,-0.571 0.042,-0.273 0.298,-0.46 0.571,-0.418 0.357,0.055 0.692,0.104 1.005,0.144 2.201,0.284 3.348,0.195 3.869,-0.278 0.552,-0.502 0.597,-1.623 0.487,-3.518 -0.052,-0.888 -0.352,-1.514 -0.918,-1.914 -0.645,-0.456 -1.534,-0.552 -2.311,-0.52 -0.02,0.001 -0.04,0.002 -0.06,0.002 -0.414,0.021 -0.793,0.076 -1.083,0.13 -0.336,0.063 -0.55,0.124 -0.558,0.125 -0.222,0.065 -0.454,-0.032 -0.567,-0.222 -0.009,-0.013 -0.016,-0.027 -0.023,-0.04 -0.012,-0.025 -0.022,-0.051 -0.03,-0.079 -0.077,-0.265 0.075,-0.542 0.339,-0.619 0.024,-0.007 0.153,-0.044 0.359,-0.09 0.177,-0.039 0.41,-0.085 0.681,-0.124 0.342,-0.049 0.745,-0.087 1.172,-0.088 0.187,0 0.378,0.007 0.572,0.023 0.359,0.03 0.725,0.092 1.077,0.201 0.209,0.064 0.414,0.145 0.61,0.245 0.136,0.069 0.268,0.149 0.395,0.237 0.152,0.107 0.292,0.226 0.418,0.355 0.557,0.568 0.867,1.346 0.924,2.32 0.095,1.588 0.119,2.913 -0.401,3.806 z"
   id="path88" />
					</g>
				</g>
				<g
   id="g96">
					<path
   style="fill:#611940"
   d="m 44.393,81.956 c -0.255,-0.965 -0.739,-1.636 -1.437,-1.997 -0.624,-0.322 -1.276,-0.311 -1.72,-0.242 -0.295,0.045 -0.497,0.115 -0.541,0.131 -0.147,0.052 -0.284,0.11 -0.413,0.175 -1.168,0.588 -1.609,1.71 -1.31,3.344 0.112,0.611 0.258,1.252 0.494,1.819 0.145,0.349 0.325,0.67 0.553,0.94 0.142,0.17 0.305,0.32 0.49,0.444 0.069,0.046 0.141,0.089 0.215,0.127 0.076,0.039 0.153,0.073 0.233,0.103 0.258,0.096 0.539,0.144 0.84,0.144 0.088,0 0.177,-0.004 0.269,-0.013 0.138,-0.012 0.279,-0.033 0.425,-0.065 0.197,-0.041 0.381,-0.091 0.552,-0.149 0.641,-0.218 1.094,-0.55 1.376,-1.009 0.479,-0.781 0.472,-1.868 -0.026,-3.752 z m -0.827,3.227 c -0.2,0.325 -0.582,0.544 -1.198,0.686 -0.001,-0.001 -0.001,0 -0.001,0 -0.023,0.005 -0.046,0.01 -0.07,0.015 -10e-4,0 -0.002,0 -0.002,0.001 -0.004,10e-4 -0.007,0.002 -0.01,0.002 -0.475,0.1 -0.854,0.065 -1.155,-0.11 -0.001,-0.001 -0.002,-0.002 -0.004,-0.002 -0.02,-0.012 -0.04,-0.024 -0.059,-0.037 -0.649,-0.435 -0.933,-1.592 -1.109,-2.552 -0.304,-1.666 0.337,-2.137 1.075,-2.397 0.002,-0.001 0.006,-0.002 0.007,-0.002 0.005,-0.002 0.309,-0.11 0.697,-0.11 0.241,0 0.513,0.041 0.768,0.174 0.433,0.227 0.743,0.684 0.922,1.36 0.408,1.549 0.451,2.465 0.139,2.972 z"
   id="path94" />
				</g>
				<g
   id="g100">
					<path
   style="fill:#ff8d47"
   d="m 43.566,85.183 c -0.2,0.325 -0.582,0.544 -1.198,0.686 -0.001,-0.001 -0.001,0 -0.001,0 -0.019,0.002 -0.037,0.006 -0.056,0.011 -0.005,0.001 -0.01,0.002 -0.014,0.004 -10e-4,0 -0.002,0 -0.002,0.001 -0.004,10e-4 -0.007,0.002 -0.01,0.002 -0.475,0.1 -0.854,0.065 -1.155,-0.11 -0.001,-0.001 -0.002,-0.002 -0.004,-0.002 -0.02,-0.012 -0.04,-0.024 -0.059,-0.037 -0.649,-0.435 -0.933,-1.592 -1.109,-2.552 -0.304,-1.666 0.337,-2.137 1.075,-2.397 0.002,-0.001 0.006,-0.002 0.007,-0.002 0.005,-0.002 0.309,-0.11 0.697,-0.11 0.241,0 0.513,0.041 0.768,0.174 0.433,0.227 0.743,0.684 0.922,1.36 0.408,1.549 0.451,2.465 0.139,2.972 z"
   id="path98" />
				</g>
				<g
   id="g106">
					<g
   id="g104">
						<path
   style="fill:#611940"
   d="m 56.757,76.062 c -0.006,0.007 -0.012,0.013 -0.019,0.019 -0.002,0.002 -0.003,0.004 -0.005,0.005 -0.002,0.001 -0.003,0.003 -0.005,0.004 -0.009,0.008 -0.017,0.015 -0.026,0.022 -0.014,0.011 -0.029,0.021 -0.043,0.03 -0.006,0.004 -0.013,0.009 -0.019,0.012 -0.006,0.004 -0.012,0.007 -0.018,0.01 -0.007,0.004 -0.014,0.007 -0.021,0.01 -0.004,0.002 -0.007,0.004 -0.011,0.005 -0.01,0.004 -0.019,0.008 -0.029,0.012 -0.013,0.005 -0.027,0.009 -0.04,0.013 -0.013,0.004 -0.025,0.007 -0.038,0.009 -0.013,0.002 -0.027,0.005 -0.041,0.006 -0.055,0.005 -0.11,0.002 -0.164,-0.01 C 56.271,76.207 56.264,76.205 56.257,76.203 56.244,76.2 56.232,76.196 56.22,76.191 56.21,76.187 56.199,76.183 56.189,76.178 56.179,76.174 56.17,76.169 56.16,76.164 56.157,76.162 56.154,76.161 56.151,76.159 56.142,76.154 56.133,76.149 56.125,76.143 56.12,76.14 56.115,76.137 56.11,76.133 56.105,76.13 56.1,76.126 56.095,76.123 56.078,76.11 56.062,76.097 56.046,76.082 55.743,75.799 55.435,75.53 55.122,75.276 55.12,75.274 55.117,75.272 55.115,75.27 52.052,72.777 48.559,71.691 44.716,72.04 c -2.463,0.223 -4.365,1.003 -5.112,1.352 l 0.259,1.004 v 0.002 l 1.374,5.321 0.086,0.335 c 0.069,0.267 -0.092,0.54 -0.359,0.609 -0.042,0.011 -0.084,0.016 -0.125,0.016 -0.222,0 -0.426,-0.15 -0.483,-0.375 l -0.072,-0.278 -1.155,-4.474 -0.305,-1.18 -0.289,-1.122 c -0.057,-0.221 0.043,-0.452 0.242,-0.563 0.034,-0.019 0.341,-0.186 0.871,-0.41 0.26,-0.11 0.574,-0.233 0.935,-0.358 1.007,-0.35 2.383,-0.719 4.002,-0.871 1.991,-0.186 3.935,0 5.778,0.552 0.61,0.183 1.21,0.406 1.796,0.67 10e-4,0 10e-4,0 10e-4,0.001 1.275,0.571 2.492,1.329 3.641,2.268 l 10e-4,0.001 c 0.2,0.163 0.397,0.332 0.592,0.505 0.114,0.102 0.228,0.206 0.342,0.312 0.199,0.187 0.209,0.504 0.021,0.705 z"
   id="path102" />
					</g>
				</g>
				<g
   id="g112">
					<g
   id="g110">
						<path
   style="fill:#611940"
   d="m 43.365,89.965 c -0.042,0.011 -0.084,0.016 -0.125,0.016 -0.004,0 -0.009,0 -0.013,-10e-4 -0.043,-0.001 -0.086,-0.007 -0.127,-0.02 -0.001,0.001 -0.001,0.001 -0.001,0 -10e-4,0 -10e-4,0 -10e-4,0 -0.163,-0.049 -0.296,-0.179 -0.342,-0.354 L 42.575,88.905 42.066,86.93 41.952,86.489 c -0.068,-0.262 0.085,-0.529 0.342,-0.604 0.001,-0.001 0.001,-0.001 0.002,-0.001 0.004,-0.002 0.009,-0.003 0.014,-0.004 0.019,-0.005 0.037,-0.009 0.056,-0.011 0,0 10e-4,-0.001 10e-4,0 0.248,-0.035 0.488,0.121 0.552,0.37 l 0.123,0.477 0.602,2.332 0.079,0.307 c 0.07,0.268 -0.091,0.541 -0.358,0.61 z"
   id="path108" />
					</g>
				</g>
				<g
   id="g116">
					<path
   style="fill:#ffffff"
   d="m 52.158,72.269 c -0.586,-0.264 -1.186,-0.487 -1.796,-0.67 -1.843,-0.552 -3.787,-0.738 -5.778,-0.552 -1.619,0.152 -2.996,0.521 -4.002,0.871 l -0.505,-1.139 c 0.947,-0.225 3.015,-0.624 5.39,-0.521 2.645,0.115 4.883,0.789 6.691,2.011 z"
   id="path114" />
				</g>
				<g
   id="g120">
					<path
   style="fill:#611940"
   d="m 55.705,75.294 c -0.086,0.057 -0.183,0.085 -0.278,0.085 -0.109,0 -0.217,-0.036 -0.305,-0.104 -0.002,-0.002 -0.005,-0.004 -0.007,-0.006 -0.039,-0.031 -0.074,-0.069 -0.103,-0.112 -0.784,-1.17 -1.736,-2.133 -2.853,-2.887 0,-10e-4 -10e-4,-10e-4 -10e-4,-10e-4 -1.808,-1.222 -4.046,-1.896 -6.692,-2.011 -2.375,-0.104 -4.443,0.296 -5.39,0.521 l 0.505,1.139 0.19,0.427 c 0.112,0.253 -10e-4,0.548 -0.254,0.66 -0.252,0.112 -0.547,-0.002 -0.659,-0.254 l -0.211,-0.476 -0.723,-1.629 c -0.058,-0.131 -0.057,-0.281 0.002,-0.411 0.059,-0.13 0.172,-0.228 0.309,-0.27 0.114,-0.035 2.836,-0.851 6.245,-0.708 2.016,0.085 3.851,0.49 5.455,1.204 1.997,0.89 3.633,2.261 4.865,4.075 l 0.001,0.001 c 0.014,0.021 0.028,0.041 0.042,0.062 0.153,0.231 0.091,0.542 -0.138,0.695 z"
   id="path118" />
				</g>
				<g
   id="g124">
					<path
   style="fill:#ff8d47"
   d="m 38.972,83.367 c 0.112,0.611 0.258,1.252 0.494,1.819 -0.991,-0.743 -1.622,-2.262 -1.849,-4.492 -0.248,-2.446 0.809,-4.244 1.511,-5.144 l 1.155,4.474 c -1.168,0.587 -1.609,1.71 -1.311,3.343 z"
   id="path122" />
				</g>
				<g
   id="g128">
					<path
   style="fill:#611940"
   d="m 41.369,86.237 c -0.015,0.233 -0.187,0.418 -0.406,0.46 -0.03,0.005 -0.062,0.009 -0.093,0.009 -0.01,0 -0.021,0 -0.032,-0.001 -0.038,-0.002 -0.076,-0.005 -0.115,-0.009 -0.23,-0.021 -0.485,-0.066 -0.753,-0.15 -1.323,-0.411 -2.942,-1.752 -3.348,-5.751 -0.351,-3.458 1.528,-5.732 2.201,-6.425 0.126,-0.13 0.209,-0.205 0.228,-0.22 0.208,-0.182 0.524,-0.161 0.705,0.047 0.052,0.059 0.087,0.127 0.107,0.198 v 0.002 c 0.047,0.178 -0.005,0.375 -0.153,0.505 -0.01,0.009 -0.258,0.233 -0.582,0.648 -0.702,0.9 -1.759,2.698 -1.511,5.144 0.227,2.23 0.857,3.749 1.849,4.492 0.337,0.253 0.714,0.415 1.133,0.486 0.001,0.001 0.002,0.001 0.002,0.001 10e-4,0 0.003,0.001 0.004,0.001 0.001,0 0.002,10e-4 0.003,10e-4 h 0.001 c 0.095,0.016 0.192,0.027 0.292,0.033 0.082,0.005 0.157,0.029 0.223,0.069 0.002,0.001 0.003,0.001 0.004,0.002 0.154,0.092 0.253,0.266 0.241,0.458 z"
   id="path126" />
				</g>
				<g
   id="g132">
					<path
   style="fill:#ff8d47"
   d="m 42.574,88.905 c -0.476,-0.031 -0.938,-0.015 -1.383,0.057 -0.194,-0.625 -0.246,-1.26 -0.246,-1.76 0,-0.148 0.004,-0.284 0.011,-0.404 0.258,0.096 0.539,0.144 0.84,0.144 0.088,0 0.177,-0.004 0.269,-0.013 z"
   id="path130" />
				</g>
				<g
   id="g136">
					<path
   style="fill:#611940"
   d="m 41.063,90 c -0.016,0.007 -0.032,0.013 -0.047,0.018 -0.004,0.001 -0.009,0.002 -0.012,0.003 -0.007,0.002 -0.014,0.004 -0.021,0.005 -0.037,0.009 -0.075,0.013 -0.112,0.013 -0.195,0 -0.381,-0.115 -0.462,-0.307 -0.071,-0.169 -0.131,-0.339 -0.183,-0.508 -0.116,-0.381 -0.187,-0.759 -0.229,-1.116 -0.043,-0.364 -0.055,-0.705 -0.052,-0.999 0.002,-0.216 0.013,-0.406 0.026,-0.563 0.017,-0.203 0.037,-0.349 0.048,-0.421 0.004,-0.025 0.006,-0.04 0.007,-0.046 0.048,-0.27 0.303,-0.451 0.572,-0.407 10e-4,0.001 0.002,0.001 0.002,0.001 10e-4,0 0.003,0.001 0.004,0.001 10e-4,0 0.002,10e-4 0.003,10e-4 h 10e-4 c 0.269,0.049 0.449,0.307 0.402,0.577 -10e-4,0.005 -0.029,0.174 -0.048,0.446 -0.002,0.032 -0.004,0.066 -0.007,0.102 -0.007,0.12 -0.011,0.256 -0.011,0.404 0,0.499 0.052,1.135 0.246,1.76 0.04,0.129 0.086,0.258 0.139,0.384 0.109,0.253 -0.011,0.546 -0.266,0.652 z"
   id="path134" />
				</g>
				<g
   id="g140">
					<path
   style="fill:#611940"
   d="m 72.501,80.023 c -0.128,-0.065 -0.266,-0.124 -0.413,-0.175 -0.043,-0.016 -0.246,-0.086 -0.541,-0.132 -0.445,-0.068 -1.096,-0.079 -1.72,0.243 -0.698,0.36 -1.182,1.032 -1.437,1.997 -0.498,1.884 -0.505,2.971 -0.025,3.752 0.282,0.459 0.735,0.791 1.376,1.009 0.17,0.058 0.354,0.108 0.552,0.149 0.146,0.031 0.287,0.052 0.425,0.065 0.091,0.009 0.181,0.013 0.269,0.013 0.302,-0.001 0.583,-0.049 0.841,-0.144 0.08,-0.03 0.157,-0.064 0.233,-0.103 0.074,-0.038 0.146,-0.08 0.215,-0.127 0.184,-0.124 0.347,-0.274 0.49,-0.444 0.228,-0.27 0.408,-0.591 0.553,-0.94 0.236,-0.567 0.382,-1.207 0.494,-1.819 0.297,-1.633 -0.144,-2.756 -1.312,-3.344 z m -2,5.865 c -0.004,-0.001 -0.007,-0.001 -0.01,-0.002 -0.024,-0.005 -0.049,-0.01 -0.072,-0.016 -0.617,-0.142 -1,-0.361 -1.2,-0.686 -0.312,-0.507 -0.269,-1.424 0.14,-2.972 0.178,-0.676 0.489,-1.134 0.922,-1.36 0.255,-0.133 0.528,-0.174 0.768,-0.174 0.384,0 0.684,0.105 0.697,0.11 0.002,0.001 0.005,0.002 0.008,0.002 0.738,0.261 1.379,0.731 1.075,2.397 -0.175,0.96 -0.46,2.117 -1.109,2.552 -0.019,0.013 -0.039,0.026 -0.059,0.037 -0.002,0.001 -0.003,0.001 -0.004,0.002 -0.302,0.175 -0.682,0.21 -1.156,0.11 z"
   id="path138" />
				</g>
				<g
   id="g144">
					<path
   style="fill:#ff8d47"
   d="m 72.828,83.187 c -0.175,0.96 -0.46,2.117 -1.109,2.552 -0.019,0.013 -0.039,0.026 -0.059,0.037 -0.002,0.001 -0.003,0.001 -0.004,0.002 -0.301,0.175 -0.68,0.21 -1.155,0.11 -0.004,-0.001 -0.007,-0.001 -0.01,-0.002 -0.005,-0.002 -0.011,-0.004 -0.016,-0.005 -0.019,-0.005 -0.037,-0.009 -0.056,-0.011 -0.617,-0.142 -1,-0.361 -1.2,-0.686 -0.312,-0.507 -0.269,-1.424 0.14,-2.972 0.178,-0.676 0.489,-1.134 0.922,-1.36 0.255,-0.133 0.528,-0.174 0.768,-0.174 0.384,0 0.684,0.105 0.697,0.11 0.002,0.001 0.005,0.002 0.008,0.002 0.737,0.26 1.378,0.731 1.074,2.397 z"
   id="path142" />
				</g>
				<g
   id="g150">
					<g
   id="g148">
						<path
   style="fill:#611940"
   d="m 74.25,73.248 -0.289,1.122 -0.304,1.176 -1.156,4.477 -0.072,0.278 c -0.058,0.225 -0.261,0.375 -0.483,0.375 -0.041,0 -0.083,-0.005 -0.125,-0.016 -0.267,-0.069 -0.428,-0.342 -0.359,-0.609 l 0.086,-0.336 1.374,-5.32 v -0.002 l 0.259,-1.004 c -0.747,-0.348 -2.649,-1.128 -5.112,-1.352 -3.836,-0.348 -7.321,0.733 -10.379,3.213 -0.009,0.008 -0.018,0.016 -0.027,0.023 -0.312,0.254 -0.62,0.523 -0.924,0.806 -0.002,0.002 -0.003,0.004 -0.005,0.005 -0.002,10e-4 -0.003,0.003 -0.005,0.004 -0.009,0.008 -0.017,0.015 -0.026,0.022 -0.014,0.011 -0.029,0.021 -0.043,0.03 -0.006,0.004 -0.013,0.009 -0.019,0.012 -0.006,0.004 -0.012,0.007 -0.018,0.01 -0.007,0.004 -0.014,0.007 -0.021,0.01 -0.004,0.002 -0.007,0.004 -0.011,0.005 -0.01,0.004 -0.019,0.008 -0.029,0.012 -0.013,0.005 -0.027,0.009 -0.04,0.013 -0.013,0.004 -0.025,0.007 -0.038,0.009 -0.013,0.002 -0.027,0.005 -0.041,0.006 -0.055,0.005 -0.11,0.002 -0.164,-0.01 -0.007,-0.002 -0.014,-0.004 -0.021,-0.006 -0.013,-0.003 -0.025,-0.007 -0.037,-0.012 -0.01,-0.004 -0.021,-0.008 -0.031,-0.013 -0.01,-0.004 -0.019,-0.009 -0.029,-0.014 -0.003,-0.002 -0.006,-0.003 -0.009,-0.005 -0.009,-0.005 -0.018,-0.01 -0.026,-0.016 -0.005,-0.003 -0.01,-0.006 -0.015,-0.01 -0.005,-0.003 -0.01,-0.007 -0.015,-0.01 -0.017,-0.013 -0.033,-0.026 -0.049,-0.041 -0.007,-0.006 -0.013,-0.012 -0.019,-0.019 -0.188,-0.202 -0.178,-0.518 0.024,-0.707 0.113,-0.106 0.227,-0.209 0.342,-0.312 0.195,-0.174 0.392,-0.342 0.592,-0.505 1.148,-0.94 2.366,-1.698 3.641,-2.269 0.587,-0.264 1.187,-0.487 1.798,-0.67 1.843,-0.552 3.787,-0.738 5.778,-0.552 1.619,0.152 2.996,0.521 4.002,0.871 0.361,0.125 0.675,0.248 0.935,0.358 0.53,0.223 0.837,0.391 0.871,0.41 0.197,0.111 0.296,0.342 0.239,0.563 z"
   id="path146" />
					</g>
				</g>
				<g
   id="g156">
					<g
   id="g154">
						<path
   style="fill:#611940"
   d="m 70.832,86.489 -0.114,0.441 -0.515,1.996 -0.175,0.68 c -0.058,0.225 -0.261,0.375 -0.484,0.375 -0.041,0 -0.083,-0.005 -0.125,-0.016 -0.267,-0.069 -0.428,-0.342 -0.359,-0.609 l 0.065,-0.251 0.616,-2.388 0.123,-0.477 c 0.064,-0.248 0.304,-0.405 0.553,-0.37 0.019,0.002 0.037,0.006 0.056,0.011 0.005,0.001 0.011,0.003 0.016,0.005 0.259,0.075 0.412,0.342 0.343,0.603 z"
   id="path152" />
					</g>
				</g>
				<g
   id="g160">
					<path
   style="fill:#ffffff"
   d="m 72.708,70.779 -0.505,1.139 c -1.007,-0.35 -2.383,-0.719 -4.002,-0.871 -1.991,-0.186 -3.935,0 -5.778,0.552 -0.611,0.183 -1.211,0.407 -1.798,0.67 1.808,-1.222 4.046,-1.896 6.693,-2.011 2.376,-0.103 4.443,0.296 5.39,0.521 z"
   id="path158" />
				</g>
				<g
   id="g164">
					<path
   style="fill:#611940"
   d="m 73.861,70.647 -0.723,1.629 -0.211,0.476 c -0.112,0.252 -0.407,0.366 -0.659,0.254 -0.253,-0.112 -0.366,-0.407 -0.254,-0.66 l 0.19,-0.427 0.505,-1.139 c -0.947,-0.225 -3.014,-0.624 -5.39,-0.521 -2.647,0.115 -4.885,0.789 -6.693,2.011 -1.117,0.754 -2.069,1.718 -2.853,2.887 -0.024,0.036 -0.052,0.068 -0.083,0.095 -0.009,0.008 -0.018,0.016 -0.027,0.023 -0.088,0.068 -0.196,0.104 -0.305,0.104 -0.096,0 -0.192,-0.027 -0.278,-0.085 -0.229,-0.153 -0.29,-0.464 -0.137,-0.694 0.014,-0.021 0.028,-0.041 0.042,-0.062 1.232,-1.815 2.868,-3.186 4.866,-4.076 1.604,-0.715 3.439,-1.12 5.455,-1.204 3.409,-0.143 6.131,0.673 6.245,0.708 0.137,0.042 0.25,0.14 0.309,0.27 0.058,0.13 0.06,0.28 0.001,0.411 z"
   id="path162" />
				</g>
				<g
   id="g168">
					<path
   style="fill:#ff8d47"
   d="m 75.167,80.694 c -0.227,2.23 -0.857,3.749 -1.849,4.492 0.236,-0.567 0.382,-1.207 0.494,-1.819 0.298,-1.633 -0.142,-2.756 -1.31,-3.344 l 1.156,-4.477 c 0.702,0.896 1.758,2.688 1.509,5.148 z"
   id="path166" />
				</g>
				<g
   id="g172">
					<path
   style="fill:#611940"
   d="m 76.162,80.795 c -0.119,1.173 -0.343,2.117 -0.632,2.876 v 10e-4 c -0.698,1.829 -1.781,2.584 -2.716,2.875 -0.267,0.083 -0.522,0.128 -0.753,0.15 -0.039,0.004 -0.077,0.007 -0.115,0.009 -0.01,10e-4 -0.021,10e-4 -0.032,10e-4 -0.032,0 -0.062,-0.003 -0.093,-0.009 -0.219,-0.041 -0.391,-0.227 -0.406,-0.46 -0.012,-0.192 0.086,-0.366 0.241,-0.459 10e-4,-10e-4 0.002,-0.002 0.004,-0.002 0.066,-0.04 0.141,-0.064 0.223,-0.069 0.1,-0.006 0.197,-0.017 0.293,-0.033 0.001,0 0.002,-10e-4 0.003,-10e-4 0.001,0 0.003,-0.001 0.004,-0.001 0.419,-0.071 0.798,-0.233 1.135,-0.487 0.991,-0.743 1.622,-2.262 1.849,-4.492 0.25,-2.459 -0.807,-4.252 -1.509,-5.148 -0.325,-0.415 -0.574,-0.638 -0.582,-0.644 -0.148,-0.13 -0.202,-0.327 -0.153,-0.505 v -0.002 c 0.019,-0.071 0.055,-0.139 0.107,-0.198 0.181,-0.208 0.497,-0.23 0.705,-0.047 0.018,0.016 0.102,0.09 0.228,0.22 0.599,0.618 2.16,2.495 2.24,5.349 0.009,0.344 -0.004,0.703 -0.041,1.076 z"
   id="path170" />
				</g>
				<g
   id="g176">
					<path
   style="fill:#ff8d47"
   d="m 71.603,88.929 c -0.451,-0.052 -0.919,-0.051 -1.399,-0.002 l 0.515,-1.996 c 0.091,0.009 0.181,0.013 0.269,0.013 0.302,-0.001 0.583,-0.049 0.841,-0.144 0.029,0.515 0.018,1.326 -0.226,2.129 z"
   id="path174" />
				</g>
				<g
   id="g180">
					<path
   style="fill:#611940"
   d="m 72.582,89.144 c -0.057,0.197 -0.125,0.394 -0.206,0.589 -0.063,0.15 -0.191,0.253 -0.337,0.291 0,0 0,0 -0.001,0 -0.04,0.01 -0.082,0.016 -0.124,0.016 -0.065,0 -0.13,-0.012 -0.193,-0.039 -0.04,-0.016 -0.076,-0.038 -0.109,-0.063 h -10e-4 c -0.177,-0.135 -0.248,-0.376 -0.158,-0.591 0.058,-0.138 0.107,-0.278 0.15,-0.418 0.244,-0.803 0.255,-1.614 0.225,-2.13 -0.002,-0.035 -0.004,-0.069 -0.007,-0.102 -0.019,-0.272 -0.048,-0.44 -0.049,-0.445 -0.047,-0.271 0.133,-0.53 0.403,-0.578 0.001,0 0.002,-0.001 0.003,-0.001 0.001,0 0.003,-0.001 0.004,-0.001 0.27,-0.045 0.527,0.136 0.575,0.407 10e-4,0.006 0.004,0.021 0.007,0.046 0.011,0.072 0.031,0.218 0.048,0.421 0.047,0.567 0.065,1.573 -0.23,2.598 z"
   id="path178" />
				</g>
				<g
   id="g184">
					<path
   style="fill:#ff8d47"
   d="m 55.052,95.132 c -0.272,0.04 -0.505,0.085 -0.681,0.124 -0.09,-0.116 -0.188,-0.219 -0.292,-0.308 -0.414,-0.355 -1.326,-1.114 -2.527,-1.978 1.281,0.481 2.666,1.183 3.5,2.162 z"
   id="path182" />
				</g>
				<g
   id="g188">
					<path
   style="fill:#ff8d47"
   d="m 58.734,102 c -0.521,0.473 -1.668,0.562 -3.869,0.278 0.088,-0.505 0.257,-1.6 0.311,-2.808 0.061,-1.378 -0.049,-2.477 -0.327,-3.289 0.289,-0.054 0.669,-0.11 1.083,-0.13 0.003,0.001 0.005,0.001 0.009,0.001 0.017,0 0.035,-0.001 0.052,-0.003 0.777,-0.032 1.665,0.064 2.311,0.52 0.566,0.4 0.866,1.027 0.918,1.914 0.11,1.894 0.065,3.015 -0.488,3.517 z"
   id="path186" />
				</g>
				<g
   id="g192">
					<path
   style="fill:#611940"
   d="m 56.173,95.993 c -0.058,0.03 -0.119,0.049 -0.181,0.055 -0.017,0.002 -0.035,0.003 -0.052,0.003 -0.003,0 -0.005,0 -0.009,-0.001 -0.177,-0.002 -0.346,-0.099 -0.434,-0.267 -0.121,-0.23 -0.271,-0.446 -0.446,-0.651 -0.835,-0.98 -2.219,-1.682 -3.501,-2.162 -10e-4,0 -10e-4,0 -10e-4,0 -1.59,-0.594 -3.023,-0.843 -3.051,-0.848 -0.272,-0.046 -0.455,-0.304 -0.41,-0.577 0.046,-0.272 0.303,-0.455 0.576,-0.41 0.014,0.002 0.046,0.008 0.094,0.017 0,0 0,0 10e-4,0 0.777,0.142 5.743,1.15 7.463,3.89 0.057,0.09 0.11,0.181 0.158,0.274 0.131,0.247 0.038,0.549 -0.207,0.677 z"
   id="path190" />
				</g>
				<g
   id="g196">
					<path
   style="fill:#ed1c24"
   d="m 73.181,73.39 -0.259,1.004 v 0.002 l -1.374,5.32 c -0.445,-0.068 -1.096,-0.079 -1.72,0.243 -0.698,0.36 -1.182,1.032 -1.437,1.997 -0.498,1.884 -0.505,2.971 -0.025,3.752 0.282,0.459 0.735,0.791 1.376,1.009 l -0.616,2.388 c -1.625,0.365 -3.32,1.157 -4.859,2.051 -0.803,0.148 -5.768,1.162 -7.47,3.912 -0.194,-0.016 -0.385,-0.023 -0.572,-0.023 -1.72,-2.741 -6.686,-3.748 -7.463,-3.89 -10e-4,0 -10e-4,0 -10e-4,0 -1.622,-0.941 -3.415,-1.77 -5.117,-2.105 l -0.602,-2.332 c 0.641,-0.218 1.094,-0.55 1.376,-1.009 0.48,-0.781 0.473,-1.868 -0.025,-3.752 -0.255,-0.965 -0.739,-1.636 -1.437,-1.997 -0.624,-0.322 -1.276,-0.311 -1.72,-0.242 l -1.374,-5.321 v -0.002 l -0.259,-1.004 c 0.747,-0.348 2.649,-1.128 5.112,-1.352 3.843,-0.348 7.336,0.737 10.399,3.23 0.002,0.002 0.005,0.004 0.007,0.006 0.312,0.254 0.62,0.523 0.924,0.806 0.015,0.015 0.032,0.029 0.049,0.041 0.005,0.004 0.01,0.007 0.015,0.01 0.005,0.004 0.01,0.007 0.015,0.01 0.009,0.006 0.018,0.011 0.026,0.016 0.003,0.002 0.006,0.003 0.009,0.005 0.01,0.005 0.019,0.01 0.029,0.014 0.01,0.005 0.021,0.009 0.031,0.013 0.012,0.004 0.024,0.009 0.037,0.012 0.007,0.002 0.014,0.004 0.021,0.006 0.054,0.012 0.109,0.016 0.164,0.01 0.014,-0.001 0.028,-0.004 0.041,-0.006 0.013,-0.002 0.025,-0.005 0.038,-0.009 0.013,-0.004 0.027,-0.007 0.04,-0.013 0.01,-0.003 0.019,-0.007 0.029,-0.012 0.004,-10e-4 0.007,-0.002 0.011,-0.005 0.007,-0.002 0.014,-0.006 0.021,-0.01 0.006,-0.003 0.012,-0.007 0.018,-0.01 0.007,-0.003 0.013,-0.007 0.019,-0.012 0.015,-0.009 0.029,-0.019 0.043,-0.03 0.009,-0.007 0.018,-0.014 0.026,-0.022 0.002,-0.001 0.003,-0.003 0.005,-0.004 0.002,-10e-4 0.003,-0.003 0.005,-0.005 0.303,-0.283 0.611,-0.552 0.924,-0.806 0.009,-0.007 0.018,-0.015 0.027,-0.023 3.058,-2.481 6.543,-3.561 10.379,-3.213 2.465,0.224 4.367,1.004 5.114,1.352 z"
   id="path194" />
				</g>
				<g
   id="g200">
					<path
   style="fill:#ff8d47"
   d="m 74.94,96.82 c -0.676,1.643 -2.368,2.949 -5.03,3.882 -5.359,1.879 -8.625,1.764 -10.093,1.528 0.519,-0.893 0.496,-2.218 0.403,-3.805 -0.057,-0.974 -0.367,-1.752 -0.924,-2.32 0.09,-0.167 0.193,-0.3 0.307,-0.398 0.423,-0.362 2.545,-2.144 5.094,-3.642 0.004,-0.002 0.008,-0.004 0.012,-0.007 2.261,-1.327 4.857,-2.43 6.903,-2.121 h 0.001 c 0.033,0.026 0.069,0.047 0.109,0.063 0.063,0.027 0.128,0.039 0.193,0.039 0.042,0 0.083,-0.005 0.124,-0.016 0.001,0 0.001,0 0.001,0 0.048,0.013 0.095,0.026 0.142,0.041 1.312,0.398 2.192,1.46 2.691,3.247 0.008,0.029 0.019,0.058 0.033,0.086 0.006,0.016 0.772,1.629 0.034,3.423 z"
   id="path198" />
				</g>
				<g
   id="g204">
					<path
   style="fill:#ff8d47"
   d="m 61.474,92.974 c -1.199,0.863 -2.109,1.62 -2.522,1.974 -0.177,0.152 -0.334,0.34 -0.469,0.564 -0.195,-0.1 -0.4,-0.181 -0.61,-0.245 0.817,-1.047 2.264,-1.791 3.601,-2.293 z"
   id="path202" />
				</g>
				<g
   id="g208">
					<path
   style="fill:#611940"
   d="m 64.709,92.059 c -0.004,0.002 -0.007,0.005 -0.012,0.007 -0.049,0.028 -0.104,0.048 -0.162,0.058 -0.028,0.004 -1.424,0.248 -2.99,0.825 -0.024,0.009 -0.047,0.018 -0.071,0.026 -1.337,0.501 -2.784,1.245 -3.601,2.293 -0.129,0.164 -0.242,0.336 -0.336,0.516 -0.09,0.17 -0.264,0.268 -0.443,0.268 -0.079,0 -0.158,-0.019 -0.232,-0.058 -0.244,-0.128 -0.339,-0.43 -0.21,-0.675 0.045,-0.085 0.093,-0.169 0.144,-0.251 1.703,-2.749 6.667,-3.764 7.47,-3.912 0.053,-0.01 0.088,-0.016 0.102,-0.018 0.272,-0.046 0.53,0.138 0.576,0.41 0.036,0.208 -0.064,0.408 -0.235,0.511 z"
   id="path206" />
				</g>
				<g
   id="g214">
					<g
   id="g212">
						<path
   style="fill:#611940"
   d="m 42.934,100.941 c -0.016,-0.197 -0.143,-0.357 -0.315,-0.424 -0.069,-0.027 -0.145,-0.04 -0.224,-0.033 -0.275,0.023 -0.48,0.264 -0.458,0.539 0.007,0.083 0.01,0.187 0.009,0.303 -0.004,0.504 -0.1,1.235 -0.421,1.519 -0.128,0.058 -0.89,0.286 -5.017,0.281 -2.022,-0.002 -3.963,-0.06 -4.376,-0.073 -0.491,-0.213 -1.659,-1.424 -2.993,-7.756 -0.608,-2.881 -1.011,-5.726 -1.165,-6.887 l 5.372,-0.134 h 0.006 c 0.012,0 0.024,-10e-4 0.035,-10e-4 l 6.609,-0.165 0.471,-0.012 c 0.276,-0.007 0.494,-0.236 0.488,-0.512 -0.007,-0.276 -0.236,-0.494 -0.513,-0.487 l -0.497,0.012 -6.13,0.153 -1.001,0.025 -5.419,0.135 c -0.141,0.003 -0.273,0.066 -0.365,0.172 -0.092,0.106 -0.135,0.247 -0.118,0.387 0.004,0.037 0.453,3.744 1.248,7.514 0.469,2.227 0.966,4.044 1.478,5.402 0.705,1.869 1.418,2.863 2.246,3.127 0.044,0.014 0.09,0.022 0.135,0.024 0.023,0.001 2.297,0.076 4.633,0.076 4.888,0 5.281,-0.321 5.491,-0.494 0.571,-0.467 0.744,-1.313 0.79,-1.935 0.027,-0.383 0.007,-0.681 10e-4,-0.756 z"
   id="path210" />
					</g>
				</g>
				<g
   id="g218">
					<path
   style="fill:#832ce5"
   d="m 41.946,101.325 c -0.004,0.504 -0.1,1.235 -0.421,1.519 -0.128,0.058 -0.89,0.286 -5.017,0.281 -2.022,-0.002 -3.963,-0.06 -4.376,-0.073 -0.491,-0.213 -1.659,-1.424 -2.993,-7.756 -0.608,-2.881 -1.011,-5.726 -1.165,-6.887 l 5.372,-0.134 h 0.006 c 0.012,0 0.024,-0.001 0.035,-0.001 l 6.609,-0.165 c 0.042,0.357 0.113,0.736 0.229,1.116 -1.452,0.565 -2.467,1.835 -3.018,3.777 -0.146,0.319 -0.886,2.126 -0.05,4.18 0.708,1.736 2.317,3.127 4.789,4.143 z"
   id="path216" />
				</g>
				<g
   id="g222">
					<path
   style="fill:#611940"
   d="m 33.388,88.273 c -0.012,0.001 -0.024,0.001 -0.035,0.001 h -0.006 c -0.258,-0.003 -0.474,-0.203 -0.492,-0.465 -0.012,-0.173 -0.026,-0.347 -0.04,-0.521 -0.217,-2.655 -0.678,-5.421 -1.24,-8.057 -0.071,-0.336 -0.144,-0.67 -0.219,-1.002 -1.569,-6.972 -3.736,-12.8 -3.767,-12.884 -0.097,-0.258 0.034,-0.547 0.292,-0.644 0.259,-0.097 0.547,0.034 0.644,0.293 0.03,0.081 2.025,5.442 3.587,12.063 0.1,0.424 0.198,0.852 0.293,1.285 0.015,0.065 0.029,0.13 0.043,0.195 0.009,0.042 0.019,0.085 0.028,0.127 0.609,2.801 1.112,5.761 1.34,8.598 0.013,0.159 0.026,0.318 0.037,0.476 0.018,0.277 -0.19,0.516 -0.465,0.535 z"
   id="path220" />
				</g>
				<g
   id="g226">
					<path
   style="fill:#611940"
   d="m 34.561,74.478 c 0.888,-2.35 1.64,-6.123 0.182,-10.751 -0.647,-2.054 -1.688,-3.865 -3.093,-5.383 -1.122,-1.212 -2.476,-2.238 -4.025,-3.051 -2.631,-1.38 -4.896,-1.662 -4.991,-1.673 -0.216,-0.026 -0.424,0.091 -0.514,0.289 -0.037,0.082 -0.919,2.032 -1.597,4.976 -0.626,2.722 -1.18,6.835 -0.263,10.964 0.975,4.391 3.629,6.682 5.684,7.831 1.963,1.097 4.107,1.552 5.522,1.552 0.036,0 0.072,-0.001 0.107,-0.001 0.163,-0.002 0.315,-0.012 0.455,-0.027 0.271,-0.029 0.469,-0.269 0.445,-0.539 -10e-4,-0.004 -10e-4,-0.007 -10e-4,-0.01 -0.004,-0.041 -0.013,-0.08 -0.027,-0.116 -0.019,-0.054 -0.047,-0.104 -0.083,-0.147 0.012,-0.015 0.026,-0.031 0.04,-0.048 0.394,-0.483 1.386,-1.819 2.159,-3.866 z m -3.065,3.389 c -0.093,0.103 -0.136,0.234 -0.129,0.363 -0.004,0 -0.007,0 -0.012,-0.001 -1.16,-0.025 -3.076,-0.39 -4.922,-1.422 -1.877,-1.049 -4.301,-3.144 -5.196,-7.174 -0.874,-3.938 -0.343,-7.884 0.256,-10.5 0.492,-2.149 1.111,-3.78 1.389,-4.46 0.719,0.133 2.408,0.525 4.279,1.506 3.303,1.732 5.533,4.373 6.628,7.849 1.097,3.481 1.047,6.864 -0.148,10.055 -0.447,1.195 -0.98,2.137 -1.404,2.783 -0.044,0.067 -0.086,0.131 -0.128,0.191 -0.356,0.523 -0.608,0.804 -0.613,0.81 z"
   id="path224" />
				</g>
				<g
   id="g230">
					<path
   style="fill:#08bf94"
   d="m 33.642,74.083 c -0.447,1.195 -0.98,2.137 -1.404,2.783 -0.044,0.067 -0.086,0.131 -0.128,0.191 -1.562,-6.62 -3.556,-11.982 -3.587,-12.063 -0.097,-0.259 -0.385,-0.39 -0.644,-0.293 -0.258,0.097 -0.389,0.385 -0.292,0.644 0.031,0.084 2.198,5.912 3.767,12.884 -1.16,-0.025 -3.076,-0.39 -4.922,-1.422 -1.877,-1.049 -4.301,-3.144 -5.196,-7.174 -0.874,-3.938 -0.343,-7.884 0.256,-10.5 0.492,-2.149 1.111,-3.78 1.389,-4.46 0.719,0.133 2.408,0.525 4.279,1.506 3.303,1.732 5.533,4.373 6.628,7.849 1.098,3.48 1.048,6.863 -0.146,10.055 z"
   id="path228" />
				</g>
				<g
   id="g234">
					<path
   style="fill:#611940"
   d="M 106.049,85.329 H 84.402 c -0.635,0 -1.16,0.485 -1.225,1.103 -0.004,0.042 -0.006,0.084 -0.006,0.127 v 5.906 c 0,0.303 0.11,0.58 0.292,0.794 0.226,0.267 0.563,0.437 0.939,0.437 h 21.647 c 1.602,0 2.905,-1.303 2.905,-2.905 v -2.557 c 0,-1.602 -1.303,-2.905 -2.905,-2.905 z m 1.905,5.462 c 0,1.05 -0.855,1.905 -1.905,1.905 H 84.402 c -0.125,0 -0.231,-0.106 -0.231,-0.231 v -5.906 c 0,-0.125 0.106,-0.231 0.231,-0.231 h 21.647 c 1.05,0 1.905,0.855 1.905,1.905 z"
   id="path232" />
				</g>
				<g
   id="g238">
					<path
   style="fill:#ffffff"
   d="m 105.661,88.082 v 2.817 c 0,0.125 -0.105,0.231 -0.231,0.231 H 84.171 v -3.279 h 21.258 c 0.126,0 0.232,0.106 0.232,0.231 z"
   id="path236" />
				</g>
				<g
   id="g242">
					<path
   style="fill:#ffe91d"
   d="m 107.954,88.234 v 2.557 c 0,1.05 -0.855,1.905 -1.905,1.905 H 84.402 c -0.125,0 -0.231,-0.106 -0.231,-0.231 V 92.13 h 21.258 c 0.679,0 1.231,-0.552 1.231,-1.231 v -2.817 c 0,-0.678 -0.552,-1.231 -1.231,-1.231 H 84.171 v -0.292 c 0,-0.125 0.106,-0.231 0.231,-0.231 h 21.647 c 1.05,10e-4 1.905,0.856 1.905,1.906 z"
   id="path240" />
				</g>
				<g
   id="g248">
					<g
   id="g246">
						<path
   style="fill:#611940"
   d="m 104.874,87.351 c 0,0.276 -0.224,0.5 -0.5,0.5 H 83.671 c -0.276,0 -0.5,-0.224 -0.5,-0.5 0,-0.276 0.224,-0.5 0.5,-0.5 h 20.703 c 0.276,0 0.5,0.224 0.5,0.5 z"
   id="path244" />
					</g>
				</g>
				<g
   id="g254">
					<g
   id="g252">
						<path
   style="fill:#611940"
   d="m 104.874,91.63 c 0,0.276 -0.224,0.5 -0.5,0.5 H 83.671 c -0.276,0 -0.5,-0.224 -0.5,-0.5 0,-0.276 0.224,-0.5 0.5,-0.5 h 20.703 c 0.276,0 0.5,0.224 0.5,0.5 z"
   id="path250" />
					</g>
				</g>
				<g
   id="g260">
					<g
   id="g258">
						<path
   style="fill:#611940"
   d="m 106.66,88.082 v 2.817 c 0,0.678 -0.552,1.231 -1.231,1.231 h -1.664 c -0.276,0 -0.5,-0.224 -0.5,-0.5 0,-0.276 0.224,-0.5 0.5,-0.5 h 1.664 c 0.125,0 0.231,-0.106 0.231,-0.231 v -2.817 c 0,-0.125 -0.105,-0.231 -0.231,-0.231 h -1.664 c -0.276,0 -0.5,-0.224 -0.5,-0.5 0,-0.276 0.224,-0.5 0.5,-0.5 h 1.664 c 0.68,0 1.231,0.552 1.231,1.231 z"
   id="path256" />
					</g>
				</g>
				<g
   id="g264">
					<path
   style="fill:#611940"
   d="m 101.391,81.447 -0.167,-0.815 c 0,-0.001 -0.001,-0.003 -0.001,-0.004 0,-0.001 -0.001,-0.002 -0.001,-0.004 l -0.857,-4.184 c 0,-0.001 -10e-4,-0.003 -10e-4,-0.004 0,-0.001 -0.001,-0.002 -0.001,-0.003 L 100.205,75.66 C 100.139,75.339 99.952,75.062 99.676,74.881 99.401,74.7 99.073,74.636 98.752,74.702 l -2.025,0.415 -3.267,0.669 -0.839,0.172 -3.583,0.734 -11.493,2.353 c -0.519,0.107 -0.977,0.345 -1.346,0.675 -0.748,0.667 -1.132,1.703 -0.917,2.754 l 0.245,1.198 v 0.001 l 0.267,1.307 c 0.155,0.757 0.599,1.411 1.248,1.84 0.482,0.318 1.034,0.483 1.597,0.483 0.194,0 0.39,-0.02 0.584,-0.06 l 3.952,-0.809 5.39,-1.103 11.866,-2.43 c 0.667,-0.137 1.097,-0.789 0.96,-1.454 z m -1.158,0.473 -21.207,4.342 c -0.496,0.102 -1.004,0.002 -1.43,-0.279 -0.426,-0.281 -0.717,-0.709 -0.818,-1.206 l -0.513,-2.505 c -0.211,-1.029 0.455,-2.038 1.484,-2.249 l 15.041,-3.079 0.94,-0.193 5.226,-1.07 c 0.016,-0.003 0.031,-0.005 0.046,-0.005 0.058,0 0.103,0.023 0.127,0.039 0.03,0.02 0.083,0.065 0.099,0.146 l 0.058,0.286 0.201,0.98 0.658,3.212 0.2,0.98 0.068,0.329 c 0.024,0.122 -0.058,0.247 -0.18,0.272 z"
   id="path262" />
				</g>
				<g
   id="g268">
					<path
   style="fill:#ffffff"
   d="m 100.144,80.339 -19.19,3.929 c -0.002,0.001 -0.004,0.001 -0.006,0.001 l -0.597,0.122 -1.034,0.212 c -0.123,0.025 -0.247,-0.057 -0.272,-0.18 l -0.565,-2.76 c -0.026,-0.122 0.057,-0.247 0.18,-0.272 l 1.034,-0.212 0.597,-0.122 c 0.002,-0.001 0.005,-0.001 0.008,-0.002 l 19.188,-3.928 z"
   id="path266" />
				</g>
				<g
   id="g272">
					<path
   style="fill:#1b75bc"
   d="m 100.233,81.92 -21.207,4.342 c -0.496,0.102 -1.004,0.002 -1.43,-0.279 -0.426,-0.281 -0.717,-0.709 -0.818,-1.206 l -0.513,-2.505 c -0.211,-1.029 0.455,-2.038 1.484,-2.249 L 92.79,76.944 c 0.318,-0.043 0.631,-0.107 0.94,-0.193 l 5.226,-1.07 c 0.016,-0.003 0.031,-0.005 0.046,-0.005 0.058,0 0.103,0.023 0.127,0.039 0.03,0.02 0.083,0.065 0.099,0.146 l 0.058,0.286 -19.188,3.929 c -0.003,0 -0.005,0.001 -0.009,0.001 l -1.631,0.334 c -0.664,0.136 -1.095,0.788 -0.958,1.453 l 0.565,2.76 c 0.119,0.582 0.633,0.984 1.205,0.984 0.082,0 0.164,-0.009 0.247,-0.026 l 1.025,-0.21 0.605,-0.124 19.196,-3.93 0.068,0.329 c 0.026,0.123 -0.056,0.248 -0.178,0.273 z"
   id="path270" />
				</g>
				<g
   id="g278">
					<g
   id="g276">
						<path
   style="fill:#611940"
   d="m 99.976,77.026 -0.49,0.1 -19.188,3.928 c -0.002,0.001 -0.005,0.001 -0.008,0.002 l -0.597,0.122 c -0.034,0.007 -0.068,0.01 -0.101,0.01 -0.232,0 -0.441,-0.163 -0.489,-0.399 -0.055,-0.27 0.119,-0.535 0.39,-0.59 l 0.596,-0.122 c 0.003,-0.001 0.005,-0.001 0.009,-0.001 l 19.188,-3.929 0.49,-0.1 c 0.269,-0.055 0.533,0.118 0.589,0.387 0,0.001 0.001,0.002 0.001,0.003 0,0.001 0.001,0.003 0.001,0.004 0.053,0.269 -0.122,0.53 -0.391,0.585 z"
   id="path274" />
					</g>
				</g>
				<g
   id="g284">
					<g
   id="g282">
						<path
   style="fill:#611940"
   d="m 100.834,81.218 -0.49,0.1 -19.196,3.93 -0.605,0.124 c -0.031,0.006 -0.062,0.009 -0.092,0.009 -0.233,0 -0.441,-0.163 -0.49,-0.399 -0.055,-0.27 0.119,-0.535 0.39,-0.59 l 0.597,-0.122 c 0.002,-10e-4 0.004,-10e-4 0.006,-10e-4 l 19.19,-3.929 0.49,-0.1 c 0.269,-0.055 0.532,0.118 0.589,0.386 0,10e-4 0.001,0.002 0.001,0.004 0,0.001 10e-4,0.003 10e-4,0.004 0.053,0.267 -0.121,0.529 -0.391,0.584 z"
   id="path280" />
					</g>
				</g>
				<g
   id="g290">
					<g
   id="g288">
						<path
   style="fill:#611940"
   d="m 81.149,85.248 -0.605,0.124 -1.025,0.21 c -0.083,0.017 -0.166,0.026 -0.247,0.026 -0.572,0 -1.086,-0.402 -1.205,-0.984 l -0.565,-2.76 c -0.136,-0.665 0.294,-1.316 0.958,-1.453 l 1.631,-0.334 c 0.003,-0.001 0.005,-0.001 0.009,-0.001 0.268,-0.051 0.527,0.124 0.582,0.391 0.055,0.268 -0.115,0.529 -0.381,0.588 -0.002,10e-4 -0.005,10e-4 -0.008,0.002 l -0.597,0.122 -1.036,0.211 c -0.122,0.025 -0.205,0.15 -0.18,0.272 l 0.565,2.76 c 0.025,0.123 0.149,0.205 0.272,0.18 l 1.034,-0.212 0.597,-0.122 c 0.002,-0.001 0.004,-0.001 0.006,-0.001 0.269,-0.052 0.529,0.122 0.584,0.391 0.056,0.271 -0.119,0.535 -0.389,0.59 z"
   id="path286" />
					</g>
				</g>
				<g
   id="g294">
					<path
   style="fill:#611940"
   d="m 104.907,93.697 c -0.445,-0.277 -0.969,-0.437 -1.53,-0.437 H 78.18 c -0.678,0 -1.231,0.552 -1.231,1.231 v 6.962 c 0,0.679 0.552,1.231 1.231,1.231 h 25.198 c 1.601,0 2.905,-1.303 2.905,-2.905 v -3.613 c 0,-1.042 -0.551,-1.957 -1.376,-2.469 z m 0.376,6.081 c 0,1.051 -0.855,1.905 -1.905,1.905 H 78.18 c -0.125,0 -0.231,-0.105 -0.231,-0.231 V 94.49 c 0,-0.125 0.106,-0.231 0.231,-0.231 h 25.198 c 1.05,0 1.905,0.855 1.905,1.905 z"
   id="path292" />
				</g>
				<g
   id="g298">
					<path
   style="fill:#ffffff"
   d="m 102.66,96.336 v 3.221 c 0,0.181 -0.153,0.336 -0.336,0.336 H 77.949 V 96 h 24.375 c 0.183,0 0.336,0.154 0.336,0.336 z"
   id="path296" />
				</g>
				<g
   id="g302">
					<path
   style="fill:#e52c57"
   d="m 105.283,96.165 v 3.613 c 0,1.051 -0.855,1.905 -1.905,1.905 H 78.18 c -0.125,0 -0.231,-0.105 -0.231,-0.231 v -0.56 h 24.375 c 0.737,0 1.335,-0.599 1.335,-1.335 v -3.221 c 0,-0.736 -0.599,-1.335 -1.335,-1.335 H 77.949 v -0.51 c 0,-0.125 0.106,-0.231 0.231,-0.231 h 25.198 c 1.05,0 1.905,0.855 1.905,1.905 z"
   id="path300" />
				</g>
				<g
   id="g308">
					<g
   id="g306">
						<path
   style="fill:#611940"
   d="m 101.619,95.5 c 0,0.276 -0.224,0.5 -0.5,0.5 h -23.67 c -0.276,0 -0.5,-0.224 -0.5,-0.5 0,-0.276 0.224,-0.5 0.5,-0.5 h 23.669 c 0.276,0 0.501,0.224 0.501,0.5 z"
   id="path304" />
					</g>
				</g>
				<g
   id="g314">
					<g
   id="g312">
						<path
   style="fill:#611940"
   d="m 101.619,100.392 c 0,0.276 -0.224,0.5 -0.5,0.5 h -23.67 c -0.276,0 -0.5,-0.224 -0.5,-0.5 0,-0.276 0.224,-0.5 0.5,-0.5 h 23.669 c 0.276,0 0.501,0.224 0.501,0.5 z"
   id="path310" />
					</g>
				</g>
				<g
   id="g320">
					<g
   id="g318">
						<path
   style="fill:#611940"
   d="m 103.66,96.336 v 3.221 c 0,0.736 -0.599,1.335 -1.335,1.335 h -1.902 c -0.276,0 -0.5,-0.224 -0.5,-0.5 0,-0.276 0.223,-0.5 0.5,-0.5 h 1.902 c 0.182,0 0.336,-0.154 0.336,-0.336 v -3.221 c 0,-0.182 -0.153,-0.336 -0.336,-0.336 h -1.902 c -0.276,0 -0.5,-0.224 -0.5,-0.5 0,-0.276 0.223,-0.5 0.5,-0.5 h 1.902 c 0.737,0.001 1.335,0.6 1.335,1.337 z"
   id="path316" />
					</g>
				</g>
				<g
   id="g344">
					<g
   id="g324">
						<path
   style="fill:#611940"
   d="m 90.431,66.139 c -0.956,-1.656 -2.182,-2.622 -3.646,-2.869 -2.021,-0.341 -3.878,0.806 -4.616,1.344 -1.281,-0.938 -2.921,-0.969 -4.467,-0.061 -1.011,0.594 -1.857,1.532 -2.38,2.642 -0.576,1.222 -0.723,2.554 -0.426,3.853 0.515,2.241 1.826,4.167 3.691,5.423 0.803,0.54 1.685,0.942 2.612,1.2 0.803,0.223 1.64,0.337 2.489,0.337 0.41,0 0.822,-0.026 1.234,-0.08 0.008,-10e-4 0.016,-0.002 0.024,-0.003 0.318,-0.043 0.631,-0.107 0.94,-0.193 1.098,-0.303 2.127,-0.868 3.001,-1.634 0.783,-0.686 1.443,-1.531 1.918,-2.493 1.171,-2.368 1.037,-5.019 -0.374,-7.466 z m -0.52,7.021 c -0.866,1.752 -2.494,3.1 -4.289,3.604 -0.273,0.077 -0.549,0.134 -0.828,0.17 -0.004,0.001 -0.008,0.001 -0.012,0.001 -4.226,0.545 -7.974,-2.023 -8.911,-6.112 -0.561,-2.444 0.819,-4.518 2.338,-5.409 0.586,-0.345 1.187,-0.516 1.76,-0.516 0.683,0 1.326,0.243 1.859,0.724 0.187,0.169 0.471,0.172 0.661,0.008 0.02,-0.018 2.044,-1.731 4.135,-1.374 1.153,0.196 2.142,0.998 2.941,2.382 1.239,2.149 1.362,4.465 0.346,6.522 z"
   id="path322" />
					</g>
					<g
   id="g328">
						<path
   style="fill:#ed1c24"
   d="m 89.911,73.16 c -0.866,1.752 -2.494,3.1 -4.289,3.604 l -0.839,0.172 c -4.226,0.545 -7.974,-2.023 -8.911,-6.112 -0.561,-2.444 0.819,-4.518 2.338,-5.409 0.586,-0.345 1.187,-0.516 1.76,-0.516 0.683,0 1.326,0.243 1.859,0.724 0.187,0.169 0.471,0.172 0.661,0.008 0.02,-0.018 2.044,-1.731 4.135,-1.374 1.153,0.196 2.142,0.998 2.941,2.382 1.238,2.148 1.361,4.464 0.345,6.521 z"
   id="path326" />
					</g>
					<g
   id="g334">
						<g
   id="g332">
							<path
   style="fill:#611940"
   d="m 82.163,65.752 c -0.231,0 -0.438,-0.161 -0.488,-0.396 -0.012,-0.054 -0.281,-1.345 -0.107,-2.996 0.234,-2.218 1.164,-4.028 2.692,-5.234 0.217,-0.171 0.531,-0.134 0.702,0.083 0.171,0.217 0.134,0.531 -0.083,0.702 -3.19,2.518 -2.236,7.19 -2.226,7.237 0.058,0.27 -0.115,0.536 -0.385,0.593 -0.036,0.008 -0.071,0.011 -0.105,0.011 z"
   id="path330" />
						</g>
					</g>
					<g
   id="g338">
						<path
   style="fill:#611940"
   d="m 83.096,59.735 c -0.021,-0.032 -0.2,-0.309 -0.501,-0.677 -0.585,-0.714 -1.629,-1.772 -2.86,-2.037 -0.724,-0.156 -1.412,-0.027 -2.045,0.384 -0.118,0.077 -0.198,0.199 -0.221,0.338 -0.012,0.071 -0.273,1.741 0.863,2.688 0.472,0.394 1.098,0.591 1.873,0.591 0.495,0 1.051,-0.08 1.667,-0.242 0.309,-0.08 0.634,-0.182 0.973,-0.304 0.143,-0.051 0.255,-0.165 0.304,-0.309 0.048,-0.145 0.028,-0.304 -0.053,-0.432 z m -4.121,-0.07 c -0.511,-0.424 -0.554,-1.168 -0.538,-1.538 0.344,-0.17 0.701,-0.213 1.084,-0.13 0.971,0.209 1.856,1.142 2.342,1.747 -1.353,0.396 -2.344,0.371 -2.888,-0.079 z"
   id="path336" />
					</g>
					<g
   id="g342">
						<path
   style="fill:#00a651"
   d="m 81.863,59.744 c -1.352,0.396 -2.344,0.371 -2.888,-0.079 -0.511,-0.424 -0.554,-1.168 -0.538,-1.538 0.344,-0.17 0.701,-0.213 1.084,-0.13 0.971,0.209 1.856,1.142 2.342,1.747 z"
   id="path340" />
					</g>
				</g>
			</g>
			<path
   style="opacity:0.3;fill:#611940"
   d="m 22.883,54.673 c 0,0 13.217,8.775 3.551,22.134 0,0 3.594,2.452 4.989,1.72 1.395,-0.731 2.913,-4.202 2.943,-4.502 0.03,-0.3 1.671,-9.218 -1.196,-13.087 -2.867,-3.869 -8.698,-6.441 -10.287,-6.265 z"
   id="path348" />
			<path
   style="opacity:0.3;fill:#611940"
   d="m 44.266,84.311 c 0.018,-0.041 0.033,-0.082 0.046,-0.125 0.084,-0.291 -10e-4,-0.502 -0.123,-0.762 -0.119,-0.254 -0.44,-0.27 -0.66,-0.173 -0.759,0.336 -1.646,0.72 -2.48,0.422 -0.683,-0.244 -0.934,-0.984 -1.289,-1.585 0.012,-0.153 0.025,-0.305 0.033,-0.459 0.017,-0.351 -0.069,-0.658 -0.177,-0.987 -0.162,-0.493 -0.22,-1.018 -0.119,-1.529 0.112,-0.569 0.418,-0.995 0.641,-1.514 0.056,-0.13 -0.015,-0.317 -0.157,-0.332 0.225,-0.649 -0.192,-1.276 -0.631,-1.744 -0.169,-0.181 -0.441,-0.198 -0.646,-0.089 0.276,-0.479 0.472,-0.824 0.472,-0.824 0,0 -0.317,-1.126 -0.296,-1.218 0.021,-0.092 1.191,-0.822 1.191,-0.822 l -0.405,-2.327 0.704,-0.137 c -0.033,0.019 -0.064,0.042 -0.093,0.067 -0.301,0.025 -0.529,0.347 -0.376,0.708 0.056,0.132 0.111,0.265 0.166,0.398 -0.031,0.138 0.023,0.261 0.117,0.351 0.045,0.11 0.096,0.216 0.16,0.317 0.211,0.335 0.576,0.285 0.768,0.066 0.012,-0.004 0.023,-0.009 0.035,-0.014 0.186,0.119 0.447,0.042 0.599,-0.12 0.055,-0.024 0.106,-0.059 0.151,-0.102 0.007,0.005 0.014,0.01 0.021,0.015 0.301,0.205 0.618,-0.186 0.469,-0.469 -0.208,-0.397 -0.348,-0.999 -0.803,-1.189 -0.02,-0.008 -0.044,-0.007 -0.066,-0.001 -0.104,-0.05 -0.224,-0.059 -0.329,-0.017 -0.11,-0.05 -0.24,-0.047 -0.355,-0.005 -0.045,-0.036 -0.096,-0.058 -0.148,-0.068 l 1.261,-0.245 c 0,0 -2.99,-3.775 -2.972,-5.572 0.018,-1.796 0.629,-5.593 0.629,-5.593 l -3.229,-1.056 -0.518,1.056 c 0,0 2.926,6.977 0.211,18.309 0,0 0.577,1.862 0.975,1.287 0.127,-0.184 0.392,-0.622 0.692,-1.131 -0.139,0.331 -0.252,0.672 -0.321,1.027 -0.183,0.949 -0.097,1.902 0.031,2.851 0.213,1.586 0.443,3.273 1.597,4.481 0.165,0.172 0.451,0.203 0.654,0.084 0.2,-0.117 0.269,-0.321 0.256,-0.535 0.038,0.03 0.078,0.058 0.12,0.082 0.097,0.157 0.194,0.314 0.32,0.449 0.374,0.402 0.876,0.48 1.4,0.504 0.984,0.045 2.099,-0.083 2.623,-1.041 0.167,-0.307 0.053,-0.555 -0.149,-0.689 z m -4.474,-0.532 c -0.019,-0.178 -0.034,-0.356 -0.045,-0.535 0.014,0.035 0.027,0.071 0.041,0.105 0.049,0.122 0.106,0.236 0.172,0.342 -0.06,0.02 -0.117,0.049 -0.168,0.088 z"
   id="path350" />
			<path
   style="opacity:0.3;fill:#611940"
   d="m 36.767,87.852 c 0,0 1.221,10.687 -5.416,14.888 0,0 -0.25,0.761 2.752,0.883 3.002,0.122 7.813,-0.085 8.026,-0.499 0.213,-0.414 0.446,-1.937 0.446,-1.937 0,0 -3.808,-1.371 -4.805,-3.562 -0.997,-2.191 -0.025,-5.358 0.431,-6.089 0.457,-0.731 2.456,-2.04 2.456,-2.04 l -0.375,-1.927 z"
   id="path352" />
			<path
   style="opacity:0.3;fill:#611940"
   d="m 56.045,76.081 -0.51,17.509 c 0,0 -2.066,-1.444 -6.774,-2.437 -4.708,-0.992 -5.038,-1.798 -5.038,-1.798 0,0 7.753,-5.84 6.809,-16.662 0,0.001 4.421,1.197 5.513,3.388 z"
   id="path354" />
			<g
   id="g360">
				<path
   style="opacity:0.3;fill:#611940"
   d="m 72.823,83.695 c -0.741,0.278 -1.421,0.455 -2.2,0.185 -0.334,-0.116 -0.651,-0.3 -0.914,-0.536 -0.143,-0.128 -0.291,-0.266 -0.406,-0.42 -0.103,-0.138 -0.159,-0.297 -0.242,-0.442 0.38,-0.612 0.753,-1.254 1.116,-1.924 -0.392,0.211 -0.736,0.507 -0.86,0.917 -0.084,0.278 -0.194,0.598 -0.301,0.935 -0.118,-0.166 -0.341,-0.115 -0.414,0.063 -0.084,0.206 -0.046,0.439 0.045,0.66 -4.616,7.112 -9.992,10.127 -9.992,10.127 l 2.01,-0.426 c -0.638,0.39 -1.282,0.777 -1.864,1.247 -0.19,0.153 -1.324,1.225 -0.818,1.467 0.072,0.178 0.238,0.317 0.465,0.317 0.353,0.001 0.581,-0.253 0.84,-0.463 0.259,-0.211 0.519,-0.421 0.778,-0.632 0.519,-0.421 1.037,-0.842 1.554,-1.265 0.311,-0.255 0.16,-0.672 -0.125,-0.848 l 2.495,-0.529 5.308,-2.45 0.407,-0.968 c -0.033,0.165 -0.057,0.327 -0.072,0.48 -0.045,0.474 0.722,0.689 0.918,0.249 0.211,-0.475 0.45,-0.948 0.776,-1.356 0.213,-0.267 0.46,-0.503 0.684,-0.759 0.665,-0.075 0.675,-1.036 -0.017,-1.071 -0.694,-0.036 -1.222,0.316 -1.602,0.827 L 70.72,86.3 c 0,0 -0.852,-0.061 -1.704,-0.92 -0.021,-0.021 -0.04,-0.044 -0.059,-0.067 0.286,0.256 0.636,0.455 0.903,0.561 0.342,0.135 0.702,0.178 1.05,0.135 0.743,0.122 1.515,-0.007 1.917,-0.744 0.097,-0.177 0.06,-0.407 -0.067,-0.551 0.141,-0.061 0.276,-0.135 0.402,-0.223 0.371,-0.261 0.157,-0.983 -0.339,-0.796 z m -3.889,-0.048 c -0.008,0.015 -0.015,0.03 -0.022,0.045 -0.089,0.019 -0.17,0.058 -0.242,0.12 0.02,-0.151 0.049,-0.305 0.083,-0.46 0.058,0.103 0.123,0.2 0.186,0.287 -10e-4,0.003 -0.003,0.005 -0.005,0.008 z"
   id="path356" />
				<path
   style="opacity:0.3;fill:#611940"
   d="m 73.681,73.39 h -0.5 c -0.831,2.688 -1.868,5.07 -3.005,7.167 0.715,-0.386 1.591,-0.49 1.591,-0.49 z"
   id="path358" />
			</g>
			<path
   style="opacity:0.3;fill:#611940"
   d="m 74.03,75.004 c -0.003,-0.056 -0.077,-0.08 -0.108,-0.029 -0.305,0.51 -0.463,1.1 -0.61,1.673 -0.053,0.205 -0.096,0.412 -0.133,0.62 -0.013,-0.002 -0.025,-0.005 -0.039,-0.006 -0.413,-0.028 -0.448,0.65 -0.499,0.915 -0.074,0.384 -0.14,0.772 -0.17,1.162 -0.045,0.578 -0.007,1.313 0.402,1.765 0.003,0.264 0.011,0.506 0.2,0.711 0.082,0.089 0.257,0.096 0.337,0 0.191,-0.227 0.183,-0.471 0.186,-0.757 0.003,-0.274 0.008,-0.549 0.015,-0.823 0.016,-0.587 0.052,-1.174 0.108,-1.759 0.056,-0.583 0.141,-1.163 0.196,-1.747 0.055,-0.573 0.148,-1.15 0.115,-1.725 z"
   id="path362" />
			<path
   style="opacity:0.3;fill:#611940"
   d="M 55.328,94.418 C 55.167,94.38 55,94.38 54.845,94.419 54.712,94.309 54.566,94.21 54.426,94.106 54.143,93.897 53.86,93.686 53.574,93.481 53.042,93.099 52.369,92.626 51.7,92.573 c -0.201,-0.016 -0.315,0.23 -0.223,0.389 0.306,0.533 0.942,0.852 1.413,1.225 0.246,0.195 0.489,0.395 0.732,0.593 0.214,0.175 0.533,0.35 0.659,0.6 0.149,0.295 0.628,0.364 0.847,0.109 0.011,-0.013 0.008,-0.022 0,-0.027 0.014,10e-4 0.033,0.002 0.058,0.002 0.595,0.011 0.735,-0.908 0.142,-1.046 z"
   id="path364" />
			<path
   style="opacity:0.3;fill:#611940"
   d="m 74.892,92.067 c 0,-0.157 -0.014,-0.316 -0.043,-0.479 -0.039,-0.218 -0.27,-0.379 -0.483,-0.399 -0.007,-0.011 -0.014,-0.021 -0.022,-0.032 -0.098,-0.139 -0.244,-0.168 -0.366,-0.128 -0.034,-0.365 -0.157,-0.712 -0.446,-0.931 -0.098,-0.074 -0.22,0.028 -0.225,0.129 -0.015,0.26 0.049,0.511 0.037,0.772 -0.014,0.293 -0.073,0.584 -0.164,0.862 -0.172,0.527 -0.436,1.02 -0.754,1.473 -0.611,0.871 -1.407,1.602 -2.283,2.199 -0.931,0.634 -1.935,1.185 -2.957,1.658 -1.077,0.498 -2.193,0.83 -3.328,1.162 -0.615,0.18 -1.274,0.278 -1.908,0.365 -0.308,0.042 -0.618,0.075 -0.928,0.1 -0.33,0.027 -0.693,0.004 -1.011,0.103 -0.227,0.071 -0.343,0.241 -0.372,0.424 -0.032,-0.048 -0.073,-0.093 -0.125,-0.132 -0.031,-0.023 -0.064,-0.042 -0.099,-0.058 0.272,-0.297 0.426,-0.664 0.337,-1.098 -0.04,-0.197 -0.325,-0.218 -0.419,-0.055 -0.36,0.629 -1.299,0.88 -1.96,1 -0.753,0.137 -1.564,0.034 -2.255,-0.295 -0.119,-0.057 -0.235,-0.073 -0.341,-0.06 -0.104,-0.041 -0.223,-0.048 -0.341,-0.031 -0.285,0.043 -0.568,0.214 -0.842,0.308 -0.32,0.11 -0.647,0.201 -0.978,0.271 -0.626,0.132 -1.264,0.185 -1.903,0.197 -1.217,0.024 -2.429,-0.105 -3.613,-0.389 -1.184,-0.283 -2.33,-0.711 -3.405,-1.284 -1.083,-0.577 -2.168,-1.266 -3.119,-2.044 -0.507,-0.414 -0.952,-0.879 -1.344,-1.402 -0.382,-0.51 -0.629,-1.078 -0.904,-1.647 -0.117,-0.242 -0.425,-0.088 -0.451,0.122 -0.028,0.225 -0.022,0.449 0.011,0.671 -0.078,0.023 -0.145,0.088 -0.154,0.194 -0.007,0.092 -0.013,0.185 -0.019,0.279 -0.132,0.037 -0.238,0.143 -0.223,0.31 0.109,1.247 0.375,2.47 0.809,3.644 0.056,0.151 0.167,0.243 0.289,0.277 0.051,0.112 0.106,0.223 0.164,0.333 0.112,0.21 0.321,0.26 0.505,0.202 0.064,0.097 0.162,0.162 0.268,0.196 0.013,0.027 0.026,0.053 0.04,0.08 0.076,0.149 0.225,0.223 0.382,0.232 0.06,0.122 0.121,0.244 0.183,0.366 0.067,0.132 0.185,0.201 0.313,0.219 10e-4,0.002 0.002,0.003 0.002,0.005 0.144,0.3 0.556,0.296 0.777,0.103 0.011,0.001 0.023,0.001 0.034,0.001 0.077,0.127 0.154,0.254 0.232,0.381 0.082,0.133 0.204,0.21 0.335,0.239 0.002,0.002 0.003,0.005 0.005,0.007 0.154,0.193 0.37,0.207 0.553,0.12 0.104,0.145 0.258,0.241 0.425,0.247 0.132,0.112 0.327,0.159 0.498,0.128 0.097,0.126 0.199,0.249 0.308,0.369 0.182,0.199 0.424,0.186 0.604,0.067 1.494,0.498 3.032,0.837 4.596,1.028 0.816,0.1 1.646,0.173 2.469,0.15 0.43,-0.012 0.86,-0.061 1.281,-0.149 0.38,-0.079 0.762,-0.202 1.148,-0.101 0.209,0.055 0.484,-0.033 0.585,-0.238 0.052,-0.106 0.096,-0.212 0.133,-0.32 -0.009,0.172 -0.022,0.343 -0.038,0.515 -0.037,0.388 0.387,0.606 0.715,0.513 0.205,0.362 0.694,0.378 0.948,0.024 0.053,-0.073 0.102,-0.149 0.149,-0.225 0.08,0.248 0.317,0.448 0.649,0.375 0.788,-0.175 1.613,-0.394 2.191,-0.997 0.254,-0.265 0.461,-0.595 0.548,-0.955 0.049,-0.202 0.058,-0.412 0.052,-0.619 -0.004,-0.147 -0.053,-0.362 0.009,-0.501 0.025,-0.058 0.044,-0.117 0.054,-0.177 0.04,0.072 0.093,0.136 0.16,0.182 -0.053,0.641 -0.255,1.251 -0.576,1.807 -0.206,0.357 0.056,0.819 0.47,0.819 3.229,0.003 6.416,-0.655 9.539,-1.419 0.755,-0.185 1.498,-0.398 2.207,-0.721 0.67,-0.305 1.284,-0.709 1.864,-1.161 0.546,-0.426 1.06,-0.892 1.479,-1.446 0.459,-0.607 0.7,-1.295 0.78,-2.048 0.133,-1.258 -0.162,-2.555 -0.738,-3.687 z m -26.847,9.185 c 0.049,0.021 0.098,0.041 0.148,0.061 -0.121,-0.019 -0.242,-0.039 -0.363,-0.06 0.072,0 0.143,-0.001 0.215,-0.001 z"
   id="path366" />
			<path
   style="opacity:0.3;fill:#611940"
   d="m 90.045,74.308 c -0.13,-0.13 -0.342,-0.175 -0.528,-0.135 0.001,-0.002 0.001,-0.003 0.002,-0.005 -1.034,0.308 -2.078,0.433 -3.149,0.24 -1.053,-0.19 -2.041,-0.613 -2.901,-1.251 -1.615,-1.199 -2.651,-3.069 -2.977,-5.035 -0.094,-0.568 -0.122,-1.155 -0.057,-1.728 0.033,-0.295 0.095,-0.594 0.18,-0.878 0.088,-0.294 0.235,-0.562 0.332,-0.853 0.112,-0.336 -0.35,-0.588 -0.587,-0.342 -0.1,0.104 -0.19,0.222 -0.271,0.349 -0.015,-0.006 -0.031,-0.01 -0.047,-0.014 -0.067,-0.134 -0.181,-0.246 -0.332,-0.273 -1.267,-0.229 -2.316,1.02 -2.952,2.045 -0.123,0.041 -0.235,0.116 -0.312,0.219 -0.587,0.791 -0.917,1.737 -1.002,2.715 -0.066,0.758 -0.027,1.834 0.521,2.443 -0.176,0.183 -0.178,0.433 -0.078,0.654 0.383,0.851 0.989,1.557 1.738,2.107 0.255,0.434 0.668,0.79 1.085,1.071 0.799,0.537 1.674,0.974 2.559,1.349 1.528,0.648 3.554,1.29 5.027,0.161 0.156,-0.119 0.267,-0.278 0.27,-0.466 0.274,0.004 0.552,-0.013 0.834,-0.056 0.53,-0.08 0.487,-0.832 0.076,-1.026 0.799,0.008 1.599,-0.11 2.331,-0.388 0.369,-0.139 0.547,-0.594 0.238,-0.903 z"
   id="path368" />
			<path
   style="opacity:0.3;fill:#611940"
   d="m 81.812,59.296 c -0.66,-0.251 -1.324,-0.493 -1.984,-0.744 -0.264,-0.1 -0.527,-0.213 -0.754,-0.383 -0.214,-0.161 -0.369,-0.423 -0.55,-0.622 -0.118,-0.13 -0.363,-0.067 -0.401,0.106 -0.068,0.31 -0.001,0.625 0.147,0.907 -0.006,0.003 -0.013,0.006 -0.019,0.009 -0.012,0.006 -0.024,0.012 -0.036,0.018 -0.191,0.096 -0.283,0.356 -0.226,0.555 0.075,0.261 0.362,0.5 0.58,0.658 0.267,0.193 0.588,0.294 0.906,0.366 0.717,0.164 1.456,0.229 2.19,0.2 0.639,-0.024 0.713,-0.855 0.147,-1.07 z"
   id="path370" />
			<path
   style="opacity:0.3;fill:#611940"
   d="m 99.478,76.644 c -0.771,0.218 -1.539,0.454 -2.327,0.605 -0.755,0.145 -1.515,0.254 -2.275,0.373 -1.62,0.252 -3.231,0.533 -4.84,0.848 -3.208,0.628 -6.412,1.303 -9.587,2.081 -0.26,0.064 -0.507,0.148 -0.73,0.262 -0.098,-0.158 -0.269,-0.273 -0.458,-0.257 -0.905,0.079 -1.343,0.906 -1.268,1.751 0.079,0.892 0.351,1.753 0.708,2.569 0.219,0.5 1.047,0.243 1.017,-0.276 -0.042,-0.741 -0.028,-1.503 0.112,-2.234 0.048,-0.251 0.103,-0.441 0.332,-0.572 0.269,-0.154 0.613,-0.199 0.911,-0.27 1.535,-0.364 3.074,-0.713 4.617,-1.046 3.047,-0.659 6.122,-1.186 9.168,-1.845 0.821,-0.178 1.638,-0.382 2.444,-0.624 0.813,-0.244 1.625,-0.485 2.393,-0.852 0.29,-0.139 0.084,-0.598 -0.217,-0.513 z"
   id="path372" />
			<path
   style="opacity:0.3;fill:#611940"
   d="m 101.597,85.287 c -0.262,0.109 -0.542,0.186 -0.8,0.301 -0.245,0.11 -0.487,0.238 -0.728,0.36 -0.061,-0.111 -0.168,-0.199 -0.329,-0.235 -0.049,-0.011 -0.098,-0.017 -0.145,-0.019 0,0 0,0 0,0 -0.002,0 -0.004,0 -0.005,0 -0.028,-0.001 -0.056,0 -0.083,0.002 l -15.364,0.452 c -0.377,0.011 -0.592,0.338 -0.526,0.691 0.057,0.307 0.022,0.619 -0.029,0.925 -0.038,0.109 -0.056,0.227 -0.062,0.349 -0.069,0.386 -0.131,0.772 -0.171,1.162 -0.087,0.852 -0.073,1.712 0.034,2.562 0.048,0.381 0.042,0.94 0.411,1.169 0.329,0.205 0.852,0.122 1.221,0.083 0.863,-0.091 1.694,-0.325 2.518,-0.587 3.245,-1.032 6.369,-2.442 9.449,-3.885 0.867,-0.406 1.729,-0.821 2.564,-1.289 0.398,-0.224 0.79,-0.475 1.145,-0.762 0.173,-0.14 0.371,-0.266 0.531,-0.419 0.187,-0.179 0.351,-0.398 0.526,-0.591 0.095,-0.107 0.003,-0.336 -0.157,-0.269 z m -15.142,2.006 c -0.121,-0.074 -0.273,-0.097 -0.399,-0.04 -0.01,-0.024 -0.023,-0.047 -0.037,-0.068 0.282,-0.008 0.565,-0.017 0.847,-0.025 -0.014,0.018 -0.028,0.037 -0.041,0.058 -0.129,-0.032 -0.267,-0.013 -0.37,0.075 z m -1.146,-0.005 c -0.042,-0.035 -0.092,-0.061 -0.146,-0.077 0.06,-0.002 0.121,-0.004 0.181,-0.005 -0.012,0.026 -0.023,0.054 -0.035,0.082 z m 0.381,4.535 c 0.026,0.016 0.053,0.031 0.081,0.044 -0.031,0.007 -0.061,0.014 -0.092,0.021 0.003,-0.022 0.007,-0.044 0.011,-0.065 z m 12.623,-4.989 c -0.493,0.238 -0.991,0.465 -1.49,0.69 -0.029,-0.133 -0.108,-0.253 -0.241,-0.315 -0.511,-0.237 -1.022,-0.242 -1.574,-0.192 -0.616,0.056 -1.23,0.135 -1.84,0.234 -0.375,0.061 -0.748,0.131 -1.12,0.209 -0.059,-0.069 -0.143,-0.12 -0.259,-0.142 -0.365,-0.068 -0.726,-0.067 -1.072,0.001 -0.137,-0.225 -0.476,-0.324 -0.733,-0.205 -0.041,0.019 -0.082,0.04 -0.123,0.06 -0.203,-0.037 -0.395,0.071 -0.527,0.242 -0.025,0.032 -0.049,0.064 -0.074,0.096 -0.11,0.07 -0.219,0.143 -0.324,0.22 0.035,-0.467 -0.658,-0.725 -0.941,-0.319 -0.048,0.006 -0.095,0.02 -0.139,0.043 -0.057,-0.138 -0.193,-0.257 -0.324,-0.29 -0.03,-0.008 -0.059,-0.013 -0.088,-0.017 -0.002,-0.002 -0.005,-0.005 -0.007,-0.007 3.632,-0.107 7.265,-0.214 10.898,-0.321 -0.007,0.005 -0.015,0.009 -0.022,0.013 z"
   id="path374" />
			<path
   style="opacity:0.3;fill:#611940"
   d="m 96.533,93.177 c -1.244,-0.139 -2.499,0.233 -3.701,0.516 -0.386,0.091 -0.773,0.18 -1.16,0.268 -0.038,-0.226 -0.21,-0.427 -0.519,-0.441 -1.99,-0.091 -3.984,-0.057 -5.969,0.109 -0.989,0.083 -1.983,0.2 -2.965,0.344 -0.439,0.064 -0.876,0.155 -1.316,0.206 -0.156,0.018 -0.31,0.03 -0.458,0.022 -10e-4,-0.003 -0.003,-0.006 -0.004,-0.009 -0.128,-0.259 -0.417,-0.315 -0.655,-0.226 -0.185,-0.089 -0.386,-0.034 -0.535,0.09 -0.093,-0.063 -0.201,-0.101 -0.307,-0.107 -0.165,-0.2 -0.472,-0.273 -0.697,-0.17 -0.286,-0.203 -0.753,-0.149 -0.846,0.277 -0.261,1.194 -0.39,2.414 -0.376,3.637 0.004,0.373 0.344,0.597 0.691,0.526 4.922,-1 9.836,-2.08 14.673,-3.436 1.363,-0.382 2.73,-0.89 4.145,-1.032 0.369,-0.037 0.366,-0.533 -0.001,-0.574 z m -9.497,1.807 c 0.192,-0.025 0.385,-0.048 0.577,-0.07 -0.22,0.052 -0.441,0.105 -0.661,0.157 0.031,-0.027 0.059,-0.056 0.084,-0.087 z m -5.569,0.207 c -0.271,0.104 -0.54,0.216 -0.806,0.335 0.012,-0.081 0.02,-0.161 0.023,-0.241 0.261,-0.013 0.525,-0.052 0.783,-0.094 z"
   id="path376" />
			<path
   style="opacity:0.3;fill:#611940"
   d="m 42.36,86.89 c -0.167,-0.12 -0.361,-0.13 -0.551,-0.079 0.07,-0.305 -0.128,-0.667 -0.489,-0.646 -0.618,0.036 -0.88,0.619 -0.884,1.174 -0.004,0.521 0.125,1.021 0.321,1.498 0,0 0,0 0,10e-4 v 0 c 0.018,0.043 0.036,0.086 0.054,0.129 0.244,0.558 1.181,0.161 0.986,-0.416 -0.167,-0.493 0.112,-1.022 0.563,-1.256 0.169,-0.088 0.133,-0.31 0,-0.405 z"
   id="path378" />
			<path
   style="opacity:0.3;fill:#611940"
   d="m 73.144,70.472 c -0.016,-0.342 -0.328,-0.548 -0.619,-0.483 -0.051,-0.008 -0.104,-0.009 -0.156,-0.001 -0.276,0.041 -0.438,0.247 -0.47,0.514 -0.063,0.069 -0.124,0.139 -0.183,0.21 0.032,-0.117 0.045,-0.244 0.038,-0.387 -0.006,-0.131 -0.173,-0.217 -0.27,-0.112 -0.401,0.431 -0.953,0.684 -1.47,0.946 -0.338,0.171 -0.288,0.796 0.112,0.857 0.338,0.052 0.669,0.056 0.994,0.012 0.11,0.286 0.439,0.475 0.763,0.282 0.002,-0.001 0.005,-0.003 0.007,-0.005 0.074,0.063 0.175,0.103 0.306,0.109 0.465,0.018 0.675,-0.486 0.772,-0.867 0.05,-0.199 0.073,-0.401 0.071,-0.603 0.073,-0.143 0.113,-0.3 0.105,-0.472 z"
   id="path380" />
			<path
   style="opacity:0.2;fill:#ffffff"
   d="m 23.437,72.948 c -0.082,-0.268 -0.153,-0.54 -0.238,-0.807 -0.166,-0.523 -0.307,-1.054 -0.45,-1.584 -0.289,-1.072 -0.493,-2.172 -0.596,-3.277 -0.219,-2.361 -0.053,-4.72 0.261,-7.064 0.092,-0.691 0.156,-1.386 0.264,-2.075 0.052,-0.332 0.116,-0.661 0.161,-0.993 0.047,-0.346 0.147,-0.687 0.152,-1.038 0.002,-0.113 -0.171,-0.171 -0.223,-0.061 -0.253,0.531 -0.374,1.16 -0.524,1.727 -0.167,0.628 -0.366,1.247 -0.513,1.88 -0.289,1.247 -0.489,2.513 -0.612,3.788 -0.225,2.342 -0.149,4.762 0.522,7.032 0.183,0.62 0.422,1.217 0.717,1.791 0.146,0.285 0.319,0.547 0.493,0.816 0.157,0.244 0.322,0.504 0.592,0.627 0.06,0.027 0.114,-0.006 0.122,-0.07 0.032,-0.251 -0.056,-0.458 -0.128,-0.692 z"
   id="path382" />
			<path
   style="opacity:0.2;fill:#ffffff"
   d="m 35.96,60.565 c -0.078,-0.12 -0.237,-0.174 -0.366,-0.096 -0.371,0.223 -0.496,0.79 -0.601,1.184 -0.099,0.373 -0.302,1.032 0.246,1.175 0.512,0.134 0.649,-0.505 0.716,-0.849 0.081,-0.413 0.252,-1.035 0.005,-1.414 z"
   id="path384" />
			<path
   style="opacity:0.2;fill:#ffffff"
   d="m 31.398,99.417 c -0.105,-0.498 -0.24,-0.991 -0.364,-1.484 -0.254,-1.007 -0.49,-2.018 -0.708,-3.032 -0.214,-0.995 -0.419,-1.993 -0.608,-2.993 -0.095,-0.499 -0.194,-0.997 -0.309,-1.492 -0.057,-0.244 -0.125,-0.493 -0.202,-0.731 -0.066,-0.204 -0.127,-0.436 -0.297,-0.577 -0.054,-0.045 -0.124,-0.039 -0.165,0.021 -0.236,0.35 -0.107,0.932 -0.091,1.331 0.02,0.503 0.114,1.01 0.195,1.506 0.166,1.025 0.361,2.046 0.579,3.061 0.218,1.015 0.453,2.026 0.707,3.033 0.124,0.494 0.259,0.985 0.405,1.473 0.141,0.472 0.326,1.001 0.726,1.312 0.059,0.046 0.134,0.03 0.161,-0.043 0.163,-0.443 0.067,-0.935 -0.029,-1.385 z"
   id="path386" />
			<path
   style="opacity:0.2;fill:#ffffff"
   d="m 51.972,94.615 c -0.143,-0.243 -0.372,-0.408 -0.589,-0.582 -0.416,-0.335 -0.845,-0.665 -1.295,-0.954 -0.91,-0.583 -1.859,-1.11 -2.841,-1.561 -1.023,-0.471 -2.1,-0.897 -3.196,-1.161 -1.018,-0.246 -2.13,-0.344 -3.13,0.03 -0.911,0.341 -1.77,1.07 -1.944,2.074 -0.013,0.074 0.073,0.108 0.117,0.049 0.513,-0.681 1.225,-1.108 2.048,-1.32 0.931,-0.239 1.904,-0.116 2.816,0.141 1.907,0.537 3.762,1.463 5.442,2.503 0.467,0.289 0.935,0.574 1.394,0.875 0.216,0.141 0.431,0.323 0.676,0.407 0.213,0.073 0.453,0.208 0.681,0.168 0.053,-0.009 0.094,-0.07 0.093,-0.122 -0.005,-0.218 -0.166,-0.367 -0.272,-0.547 z"
   id="path388" />
			<path
   style="opacity:0.2;fill:#ffffff"
   d="m 57.935,96.508 c -0.386,-0.172 -0.798,-0.328 -1.227,-0.317 -0.348,0.009 -0.779,0.066 -1.038,0.318 -0.073,0.071 -0.055,0.198 0.032,0.249 0.257,0.148 0.565,0.17 0.843,0.266 0.304,0.104 0.612,0.178 0.9,0.324 0.564,0.283 1.053,-0.589 0.49,-0.84 z"
   id="path390" />
			<path
   style="opacity:0.2;fill:#ffffff"
   d="m 71.257,90.353 c -0.409,-0.281 -1.181,-0.057 -1.632,0.036 -0.5,0.103 -0.983,0.254 -1.457,0.441 -0.122,0.048 -0.243,0.099 -0.363,0.15 -0.053,0.022 -0.106,0.045 -0.159,0.068 -0.118,0.052 -0.137,0.08 -0.057,0.084 -0.079,0.003 -0.157,0.011 -0.235,0.025 -0.075,0.03 -0.148,0.062 -0.221,0.097 -0.1,0.046 -0.199,0.094 -0.298,0.143 -0.476,0.237 -0.941,0.496 -1.402,0.759 -0.969,0.553 -1.928,1.125 -2.872,1.719 -0.465,0.293 -0.92,0.601 -1.375,0.909 -0.446,0.302 -0.871,0.628 -1.171,1.082 -0.032,0.048 0.02,0.096 0.068,0.088 0.523,-0.088 0.987,-0.328 1.443,-0.589 0.476,-0.273 0.957,-0.537 1.435,-0.807 0.939,-0.531 1.886,-1.047 2.843,-1.543 0.441,-0.229 0.885,-0.453 1.336,-0.662 0.231,-0.107 0.508,-0.191 0.706,-0.352 0.082,-0.082 0.098,-0.096 0.047,-0.043 0.064,0.002 0.124,-0.011 0.181,-0.037 0.121,-0.036 0.24,-0.092 0.359,-0.134 0.477,-0.17 0.966,-0.32 1.461,-0.428 0.464,-0.101 1.075,-0.047 1.449,-0.353 0.221,-0.183 0.114,-0.516 -0.086,-0.653 z"
   id="path392" />
			<path
   style="opacity:0.2;fill:#ffffff"
   d="m 71.758,81.241 c -0.309,-0.54 -1.078,-0.345 -1.493,-0.048 -0.378,0.27 -0.623,0.674 -0.51,1.139 0.027,0.111 0.157,0.124 0.234,0.062 0.189,-0.153 0.43,-0.306 0.663,-0.385 0.266,-0.091 0.555,0.041 0.814,-0.049 0.297,-0.104 0.457,-0.431 0.292,-0.719 z"
   id="path394" />
			<path
   style="opacity:0.2;fill:#ffffff"
   d="m 42.554,81.265 c -0.213,-0.42 -0.929,-0.45 -1.338,-0.325 -0.183,0.056 -0.4,0.211 -0.507,0.367 -0.038,0.055 -0.08,0.134 -0.096,0.2 -0.005,0.037 -0.01,0.074 -0.015,0.112 0.023,0.052 0.008,0.066 -0.044,0.042 -0.057,0.044 0.005,0.146 0.071,0.122 0.071,-0.027 0.136,0.048 0.231,0.086 0.145,0.058 0.343,0.108 0.501,0.114 0.142,0.006 0.284,-0.021 0.427,-0.004 0.231,0.027 0.396,0.074 0.603,-0.075 0.214,-0.153 0.29,-0.396 0.167,-0.639 z"
   id="path396" />
			<path
   style="opacity:0.2;fill:#ffffff"
   d="m 41.767,77.357 c -0.121,-0.49 -0.238,-0.981 -0.363,-1.47 -0.121,-0.469 -0.233,-0.941 -0.373,-1.405 -0.1,-0.332 -0.24,-0.938 -0.672,-0.953 -0.077,-0.003 -0.151,0.044 -0.189,0.109 -0.204,0.341 -0.057,0.845 0.014,1.204 0.095,0.475 0.214,0.946 0.326,1.417 0.112,0.471 0.231,0.941 0.347,1.412 0.113,0.459 0.19,0.959 0.428,1.373 0.208,0.361 0.745,0.189 0.761,-0.206 0.02,-0.496 -0.162,-1.004 -0.279,-1.481 z"
   id="path398" />
			<path
   style="opacity:0.2;fill:#ffffff"
   d="m 57.243,83.741 c -0.023,-1.118 -0.147,-2.229 -0.23,-3.344 -0.047,-0.621 -0.118,-1.222 -0.111,-1.847 0.003,-0.297 0.012,-0.594 0.032,-0.89 0.02,-0.298 0.056,-0.566 -0.067,-0.846 -0.038,-0.086 -0.18,-0.101 -0.239,-0.031 -0.308,0.37 -0.278,0.953 -0.305,1.41 -0.033,0.555 -0.021,1.111 -0.046,1.666 -0.049,1.111 0.049,2.232 0.073,3.344 0.024,1.111 -0.05,2.219 -0.104,3.329 -0.055,1.132 -0.113,2.264 -0.162,3.397 -0.028,0.647 -0.056,1.294 -0.085,1.941 -0.013,0.302 -0.041,0.608 -0.018,0.91 0.011,0.147 0.031,0.317 0.096,0.452 0.059,0.122 0.166,0.197 0.251,0.3 0.041,0.05 0.127,0.042 0.17,0 0.19,-0.192 0.312,-0.293 0.38,-0.571 0.067,-0.274 0.067,-0.569 0.08,-0.848 l 0.079,-1.698 c 0.052,-1.112 0.097,-2.224 0.143,-3.336 0.046,-1.113 0.086,-2.224 0.063,-3.338 z"
   id="path400" />
			<path
   style="opacity:0.2;fill:#ffffff"
   d="m 87.041,65.132 c -0.525,-0.201 -1.132,-0.161 -1.534,0.149 -0.04,0.023 -0.078,0.049 -0.116,0.076 -0.221,-0.003 -0.437,0.152 -0.586,0.319 -0.252,0.282 -0.375,0.703 -0.359,1.077 0.035,0.85 0.706,1.517 1.534,1.637 0.825,0.12 1.642,-0.357 1.982,-1.114 0.408,-0.907 -0.014,-1.797 -0.921,-2.144 z"
   id="path402" />
		</g>
	</g>
	<g
   id="g424"
   transform="matrix(1.0542689,0,0,1.0542689,37.863749,5.2745968)">
		<circle
   style="opacity:0.3;fill:#611940"
   cx="92.426003"
   cy="35.650002"
   r="14.695"
   id="circle408" />
		<circle
   style="fill:#ff9d00"
   cx="91.093002"
   cy="33.105999"
   r="14.695"
   id="circle410" />
		<g
   style="opacity:0.3"
   id="g414">
			<path
   style="fill:#611940"
   d="m 91.28,48.801 c -8.378,0 -15.195,-6.816 -15.195,-15.195 0,-8.379 6.816,-15.195 15.195,-15.195 8.379,0 15.195,6.816 15.195,15.195 0,8.379 -6.816,15.195 -15.195,15.195 z m 0,-29.39 c -7.827,0 -14.195,6.368 -14.195,14.195 0,7.827 6.368,14.195 14.195,14.195 7.827,0 14.195,-6.368 14.195,-14.195 0,-7.827 -6.368,-14.195 -14.195,-14.195 z"
   id="path412" />
		</g>
		<g
   id="g418">
			<path
   style="fill:#ffffff"
   d="m 91.093,48.301 c -8.378,0 -15.195,-6.816 -15.195,-15.195 0,-8.379 6.816,-15.195 15.195,-15.195 8.379,0 15.195,6.816 15.195,15.195 0,8.379 -6.817,15.195 -15.195,15.195 z m 0,-29.39 c -7.827,0 -14.195,6.368 -14.195,14.195 0,7.827 6.368,14.195 14.195,14.195 7.827,0 14.195,-6.368 14.195,-14.195 0,-7.827 -6.368,-14.195 -14.195,-14.195 z"
   id="path416" />
		</g>
		<g
   id="g422">
			<path
   style="fill:#ffffff"
   d="m 91.093,33.606 h -6.888 c -0.276,0 -0.5,-0.224 -0.5,-0.5 0,-0.276 0.224,-0.5 0.5,-0.5 h 6.388 v -9.761 c 0,-0.276 0.224,-0.5 0.5,-0.5 0.276,0 0.5,0.224 0.5,0.5 v 10.261 c 0,0.276 -0.224,0.5 -0.5,0.5 z"
   id="path420" />
		</g>
	</g>
</g>
</svg>
